<?xml version="1.0" encoding="UTF-8"?>
<!DOCTYPE svg PUBLIC "-//W3C//DTD SVG 1.0//EN" "http://www.w3.org/TR/2001/REC-SVG-20010904/DTD/svg10.dtd">
<!-- Creator: CorelDRAW 2018 (64 Bit Versión de evaluación) -->
<svg xmlns="http://www.w3.org/2000/svg" xml:space="preserve" width="1024px" height="768px" version="1.0" style="shape-rendering:geometricPrecision; text-rendering:geometricPrecision; image-rendering:optimizeQuality; fill-rule:evenodd; clip-rule:evenodd"
viewBox="0 0 1024 768"
 xmlns:xlink="http://www.w3.org/1999/xlink">
 <defs>
  <style type="text/css">
   <![CDATA[
    .fil0 {fill:#91D8F7}
   ]]>
  </style>
 </defs>
 <g id="Capa_x0020_1">
  <metadata id="CorelCorpID_0Corel-Layer"/>
  <g id="_2066488178688">
   <path class="fil0" d="M35.543 32.598c0,19.465 -1.829,133.621 1.229,142.948 0.017,0.051 2.232,5.562 2.265,5.644l2.914 5.448c3.067,4.291 6.317,8.42 11.208,10.903l13.172 3.129 879.653 0c6.933,0 11.819,-2.507 16.453,-7.033 0.2,-0.196 0.462,-0.492 0.659,-0.689l1.31 -1.323c6.972,-6.988 11.027,-14.363 11.027,-25.138 0,-20.138 1.96,-129.769 -1.291,-140.26l-7.994 -16.36c-3.738,-4.556 -10.337,-9.396 -17.487,-9.396 -84.34,0 -876.131,-1.186 -887.868,0.209 -4.985,0.592 -7.254,2.127 -11.624,5.054l-8.99 10.566c-0.138,0.279 -0.303,0.626 -0.437,0.905l-0.848 1.804c-2.158,4.763 -3.351,7.256 -3.351,13.589z"/>
   <path class="fil0" d="M62.32 295.021c-0.864,0.436 -1.363,-0.527 -4.76,1.344l-6.281 4.889c-0.221,0.194 -0.527,0.436 -0.745,0.639 -3.55,3.312 -4.26,5.657 -5.892,9.302 -5.44,12.153 -3.744,19.142 -3.744,33.365 0,10.426 -1.126,115.239 0.856,123.072 0.685,2.703 1.281,3.939 2.689,6.914l1.374 2.691c0.057,0.106 1.541,2.64 1.991,3.344l2.253 3.238c0.253,0.319 0.991,1.235 1.272,1.533l1.447 1.395c11.599,10.087 34.048,6.424 55.057,6.424 236.537,0 473.074,0 709.613,0 19.952,0 131.81,2.133 141.67,-1.132 6.064,-2.008 9.346,-5.803 13.019,-10.399l4.889 -7.49c5.589,-13.225 3.76,-17.79 3.76,-33.19 0,-12.245 1.541,-113.197 -1.251,-122.837l-10.408 -17.897c-9.261,-11.693 -37.233,-7.783 -55.279,-7.783 -276.884,0 -556.092,1.268 -832.79,-0.012l-13.478 0.449c-6.172,1.476 5.322,-2.03 -2.661,0.88l-2.601 1.261z"/>
   <path class="fil0" d="M38.659 608.322c0.008,24.843 -2.79,120.28 3.086,136.539 0.12,0.334 0.255,0.687 0.383,1.017 0.126,0.324 0.267,0.672 0.398,0.99l7.782 12.494c4.754,5.797 12.076,8.296 20.039,8.296 80.6,0 878.426,1.059 885.707,-0.548l11.885 -6.914c9.348,-8.935 12.663,-20.146 12.663,-35.39 0,-22.145 2.074,-116.267 -2.09,-131.173l-8.456 -15.723c-0.74,-0.919 -0.869,-1.245 -1.684,-2.248l-4.356 -4.302c-2.846,-2.059 -5.135,-3.198 -11.338,-3.198l-879.653 0c-12.794,0 -13.027,-0.986 -19.741,5.669l-1.287 1.314c-3.464,3.395 -4.968,4.002 -7.576,8.758 -3.253,5.931 -5.762,17.738 -5.762,24.419z"/>
  </g>
 </g>
</svg>
