<?xml version="1.0" encoding="UTF-8"?>
<!DOCTYPE svg PUBLIC "-//W3C//DTD SVG 1.1//EN" "http://www.w3.org/Graphics/SVG/1.1/DTD/svg11.dtd">
<!-- Creator: CorelDRAW 2018 (64 Bit Versión de evaluación) -->
<svg xmlns="http://www.w3.org/2000/svg" xml:space="preserve" width="270.933mm" height="203.2mm" version="1.1" style="shape-rendering:geometricPrecision; text-rendering:geometricPrecision; image-rendering:optimizeQuality; fill-rule:evenodd; clip-rule:evenodd"
viewBox="0 0 27093.32 20320"
 xmlns:xlink="http://www.w3.org/1999/xlink">
 <defs>
  <style type="text/css">
   <![CDATA[
    .fil0 {fill:#8DD7F7}
   ]]>
  </style>
 </defs>
 <g id="Capa_x0020_1">
  <metadata id="CorelCorpID_0Corel-Layer"/>
  <g id="_2101473652592">
   <path class="fil0" d="M10424.5 9764.38c-69.25,122.12 -5817.05,5836.06 -6329.77,6345.79 -303.05,301.29 -206.62,300.08 55.14,561.82l1944.69 1944.69c244.83,244.84 265.95,382.94 563.03,82.82 423.3,-427.64 6244.51,-6276.11 6357.81,-6343.87 651.22,688.29 1600.1,1602.28 2261.93,2264.11 93.27,93.27 4167.82,4193.42 4242.23,4227.41 160.43,73.28 280.49,-110.9 355.37,-185.95 385.28,-386.11 752.01,-752.02 1137.7,-1137.71l846.67 -846.67c402.18,-402.05 347.27,-256.53 -788.28,-1392.08l-5494.96 -5483.48c77.9,-137.65 5877.12,-5899.71 6334.72,-6355.03 299.95,-298.45 217.71,-307.38 -47.16,-572.15l-1944.96 -1944.41c-375.3,-375.36 -261.37,-382 -1060.16,416.78 -385.33,385.34 -5739.49,5781.67 -5879.98,5857.47l-6316.93 -6325.72c-257.29,-257.17 -235.16,-279.73 -557.85,43.07l-1944.68 1944.69c-249.69,249.64 -369.76,268.41 -73.65,561.96l5357.86 5357.76c329.34,329.35 641.71,660.51 981.23,978.7z"/>
  </g>
 </g>
</svg>
