<?xml version="1.0" encoding="UTF-8"?>
<!DOCTYPE svg PUBLIC "-//W3C//DTD SVG 1.1//EN" "http://www.w3.org/Graphics/SVG/1.1/DTD/svg11.dtd">
<!-- Creator: CorelDRAW 2018 (64 Bit Versión de evaluación) -->
<svg xmlns="http://www.w3.org/2000/svg" xml:space="preserve" width="215.9mm" height="279.4mm" version="1.1" style="shape-rendering:geometricPrecision; text-rendering:geometricPrecision; image-rendering:optimizeQuality; fill-rule:evenodd; clip-rule:evenodd"
viewBox="0 0 21590 27940"
 xmlns:xlink="http://www.w3.org/1999/xlink">
 <defs>
  <style type="text/css">
   <![CDATA[
    .fil0 {fill:#90D7F7}

    .loading{
      animation: loading 2s ease-in-out infinite;
    }

    #loadingGepo-1{
      animation-delay: 0.1s;
    }

    #loadingGepo-2{
      animation-delay: 0.3s;
    }

    #loadingGepo-3{
      animation-delay: 0.5s;
    }

    #loadingGepo-4{
      animation-delay: 0.7s;
    }

    #loadingGepo-5{
      animation-delay: 0.9s;
    }

    #loadingGepo-6{
      animation-delay: 1.2s;
    }

    #loadingGepo-7{
      animation-delay: 1.4s;
    }

    #loadingGepo-8{
      animation-delay: 1.6s;
    }

    @keyframes loading{
      0%{
        opacity: 1;
      }
      50%{
        opacity: 0;
      }
      100%{
        opacity: 1;
      }
    }
   ]]>
  </style>
 </defs>
 <g id="Capa_x0020_1">
  <metadata id="CorelCorpID_0Corel-Layer"/>
  <g id="_2574716121920">
   <!-- 1 --><path id="loadingGepo-1" class="fil0 loading" d="M9288.49 27448.99c182.95,-48.86 2355.31,-2339.87 2660.8,-2645.39 75.35,-75.32 362.51,-310.52 362.51,-408.75l0 -4473.25c0,-916.31 -58.08,-1792.04 -30.82,-2747.7l-0.04 -14682.5c0,-886.4 91.38,-479.36 -763.54,-1334.28 -174.13,-174.13 -546.29,-587.37 -717.26,-701.85l-886.94 871.53c-742.84,742.84 -624.71,476.63 -624.71,1164.6l0 24957.59z"/>
   <!-- 2 --><path id="loadingGepo-2" class="fil0 loading" d="M2007.92 24425.68c222.16,51.77 6433.3,3223.64 6632.72,3270.1 0,-1012.77 30.86,-1922.56 30.86,-2930.73 -166.44,-38.77 -655.03,-312.08 -832.95,-401.06 -276.01,-137.99 -537.91,-268.94 -822.67,-411.34 -564.51,-282.24 -1097.22,-562.04 -1665.53,-833.31l-411.48 -205.54c-138.86,-68.9 -264.09,-131.68 -411.55,-205.43 -797.28,-398.62 -1788.47,-857.51 -2519.4,-1244.28l0 2961.59z"/>
   <!-- 3 --><path id="loadingGepo-3" class="fil0 loading" d="M2285.57 20908.79l2992.45 1480.76c79.98,-119.41 3278.45,-2903.08 3342.29,-2981.89 89.38,-110.33 51.19,-325.85 51.19,-565.79l0 -3177.55c-93.82,25.03 -141.37,69.92 -208.24,131.1 -71.3,65.26 -126.1,106.1 -202.51,167.68 -147.79,119.08 -258.67,212.24 -409.19,331.21l-4781.72 3917.95c-146.51,115.83 -747.87,560.11 -784.27,696.53z"/>
   <!-- 4 --><path id="loadingGepo-4" class="fil0 loading" d="M12928.79 12116.57l0 1850.99c90.69,24.23 394.39,272.69 489.16,343.78 169.18,126.95 325.2,250.03 498.02,365.76 160.69,-107.57 472.95,-414.8 640.42,-562.77 93.09,-82.24 137.47,-107.96 230.64,-201.21 84.46,-84.57 133.14,-102.64 216.98,-184.08 90.84,-88.25 113.8,-110.18 212.25,-188.77l1514.97 -1354.11c88.1,-89.6 128.04,-108.25 215.52,-185.54l1943.55 -1727.58c558.36,-493.32 1295.11,-1187.62 1840.57,-1645.45 65.37,-54.87 69.19,-21.9 95.5,-120.46l-3208.92 -0.51c-427.55,-4.59 -389.91,132.45 -893.91,525.16 -66.31,51.63 -136.34,104.18 -206.63,163.57l-591.7 488.07c-79.91,63.29 -121.41,104.28 -202.12,168.08l-1190.32 969.15c-280.12,218.3 -1412.18,1194.4 -1603.98,1295.92z"/>
   <!-- 5 --><path id="loadingGepo-5" class="fil0 loading" d="M12928.79 7890.11l8020.99 0c-40.33,-151 -1349.47,-1395.72 -1488.52,-1534.76 -245.29,-245.29 -501.91,-531.8 -756.06,-755.59 -133,-117.15 -742.08,-732.93 -809.56,-732.93l-4966.85 0 0 3023.28z"/>
   <!-- 6 --><path id="loadingGepo-6" class="fil0 loading" d="M588.82 7890.11l8082.68 0 0 -3023.28 -4997.68 0c-131.94,0 -2138.23,2061.09 -2321.47,2244.33 -186.26,186.26 -641.94,597.35 -763.53,778.95z"/>
   <!-- 7 --><path id="loadingGepo-7" class="fil0 loading" d="M8671.5 14368.62l0 -2838.21c-99.62,-26.6 -651.09,-465.27 -771.26,-555.3l-3084.93 -2313.78c-218.91,-165.75 -149.79,-156.2 -524.4,-154.31l-3393.58 0.11c26.85,100.56 1.56,42.92 77.35,107.74l7696.82 5753.75z"/>
   <!-- 8 --><path id="loadingGepo-8" class="fil0 loading" d="M12928.79 17577l1062.1 788.89c364.11,272.95 695.47,521.31 1057.76,793.23 337.69,253.5 6183.99,4694.1 6363.88,4742.12l0 -2807.35c-184.95,-123.82 -349.5,-254.33 -533.25,-392.25 -186.01,-139.62 -341.2,-255.97 -528.85,-396.65l-6879.54 -5151.92c-105.77,-79.29 -449.23,-358.61 -542.1,-383.42l0 2807.35z"/>
  </g>
 </g>
</svg>
