<?xml version="1.0" encoding="UTF-8"?>
<!DOCTYPE svg PUBLIC "-//W3C//DTD SVG 1.1//EN" "http://www.w3.org/Graphics/SVG/1.1/DTD/svg11.dtd">
<!-- Creator: CorelDRAW 2018 (64 Bit Versión de evaluación) -->
<svg xmlns="http://www.w3.org/2000/svg" xml:space="preserve" width="203.2mm" height="270.933mm" version="1.1" style="shape-rendering:geometricPrecision; text-rendering:geometricPrecision; image-rendering:optimizeQuality; fill-rule:evenodd; clip-rule:evenodd"
viewBox="0 0 20320 27093.32"
 xmlns:xlink="http://www.w3.org/1999/xlink">
 <defs>
  <style type="text/css">
   <![CDATA[
    .fil0 {fill:#3498DB}
    .fil3 {fill:#37A1E7}
    .fil2 {fill:#38A5EE}
    .fil1 {fill:#39A6EF}
   ]]>
  </style>
   <clipPath id="id0">
    <rect x="-53613.17" y="21488383.14" width="0" height="0"/>
   </clipPath>
   <clipPath id="id1">
    <rect x="-32382.97" y="37274.99" width="0" height="0"/>
   </clipPath>
   <clipPath id="id2">
    <rect x="-21464676.48" y="21488383.14" width="0" height="0"/>
   </clipPath>
   <clipPath id="id3">
    <rect x="-21464676.48" y="21488383.14" width="0" height="0"/>
   </clipPath>
   <clipPath id="id4">
    <rect x="-146724.66" y="26855.95" width="0" height="0"/>
   </clipPath>
 </defs>
 <g id="Capa_x0020_1">
  <metadata id="CorelCorpID_0Corel-Layer"/>
  <g style="clip-path:url(#id0)">
   <image x="-53613.17" y="42962288.78" width="0" height="0" xlink:href="carpeta_Images\carpeta_ImgID1.png"/>
  </g>
  <g style="clip-path:url(#id1)">
   <image x="-32382.97" y="37274.99" width="0" height="0" xlink:href="carpeta_Images\carpeta_ImgID2.png"/>
  </g>
  <g style="clip-path:url(#id2)">
   <image id="background-login.jpg" x="-40653512.98" y="40677219.64" width="0" height="0" xlink:href="carpeta_Images\carpeta_ImgID3.png"/>
  </g>
  <g style="clip-path:url(#id3)">
   <image x="-42587683.22" y="42961124.9" width="0" height="0" xlink:href="carpeta_Images\carpeta_ImgID4.png"/>
  </g>
  <g style="clip-path:url(#id4)">
   <image x="-146724.66" y="26855.95" width="0" height="0" xlink:href="carpeta_Images\carpeta_ImgID5.png"/>
  </g>
  <g id="_1940023537648">
   <path class="fil0" d="M-158553.87 31713.06c6.1,-6.05 22.01,-12.79 25.51,-3.61l69.9 11.65c140.65,70.7 -3.74,110.04 325.69,103.43l16617.89 -2.94c131.81,0 730.81,24.97 821.69,-19.17l105.1 -81.98c92.79,-43.84 -5.77,-61.98 96.08,-7.38 140.83,-956.52 237.04,-1925.58 372.99,-2908.03 335.2,-2422.33 597.61,-4948.41 921.85,-7403.7l142.96 -1128.3c24.71,-173.04 40.16,-273.33 -64.05,-342.75 -45.13,13.84 -62.57,-75.86 -182.93,-106.58l-2248.97 -1.97c-1508.58,0 -17904.17,-36.76 -18203.34,2.54 -293.77,-81.36 -241.16,408.76 -222.56,540.14l277.26 2262.84c149.53,1022.56 243.58,2014.61 379.25,3042.68 260.73,1975.71 477.49,4085.64 765.68,6043.13z"/>
   <path class="fil0" d="M-158497.56 16155.56c51.43,612.02 -82.19,2324.12 49.17,2751.66l17850.9 0c129.45,-421.32 -20.45,-1249.96 56.24,-1728.61l14.14 -34.89c-85.76,-25.43 -34.51,-12.19 -94.75,-74.69 -217.7,-225.85 -210.68,-140.06 -893.02,-140.06l-8290.28 0c-97.46,-21 -52.05,20.17 -72.62,-67.86 -53,-118.75 -97.34,-282.13 -143.16,-419.22 -38.33,-114.71 -119.02,-273.25 -137.63,-392.17 -98.93,91.53 155.9,62.73 -81.18,62.73 -37.15,-267.87 -103.67,-33.32 -194.56,-239.11l-7202.52 0c-170,0 -364.6,-9.24 -531.14,-1.97 -242.05,10.56 -204.01,80.05 -350.8,178.35l21.21 105.84z"/>
   <path class="fil1" d="M-139118.26 19930.28c-62.58,-265.76 -690.28,-176.39 -1091.35,-176.39l-19404.1 -2.64c-201.2,35.03 -65.63,-38.89 -139.79,73.02 299.17,-39.3 16694.76,-2.54 18203.34,-2.54l2248.97 1.97c120.36,30.72 137.8,120.42 182.93,106.58z"/>
   <path class="fil2" d="M-140492.01 31713.06c-101.85,-54.6 -3.29,-36.46 -96.08,7.38l-105.1 81.98c-90.88,44.14 -689.88,19.17 -821.69,19.17l-16617.89 2.94c-329.43,6.61 -185.04,-32.73 -325.69,-103.43l-69.9 -11.65c-3.5,-9.18 -19.41,-2.44 -25.51,3.61 168.91,128.5 148.33,173.13 421.41,178.13 185.97,3.41 379.21,-1.74 566.19,-1.74l16617.52 1.68c304.72,-1.23 272.27,-37.74 456.74,-178.07z"/>
   <path class="fil2" d="M-140527.11 17143.72c-193.01,-367.14 -388.5,-282.61 -917.22,-282.61l-8433.45 0c20.57,88.03 -24.84,46.86 72.62,67.86l8290.28 0c682.34,0 675.32,-85.79 893.02,140.06 60.24,62.5 8.99,49.26 94.75,74.69z"/>
   <path class="fil2" d="M-158448.39 18907.22c-131.36,-427.54 2.26,-2139.64 -49.17,-2751.66 -119.14,117.26 -56.49,476.33 -56.49,635l0 2116.66 105.66 0z"/>
   <path class="fil2" d="M-140597.49 18907.22c162.4,0 105.66,99.49 105.66,-881.94 0,-139.76 56.98,-746.26 -49.42,-846.67 -76.69,478.65 73.21,1307.29 -56.24,1728.61z"/>
   <path class="fil3" d="M-150158.57 16049.72c-66.93,-89.23 -37.66,-66.16 -124.97,-123.95 -77.15,-51.05 -42.8,-42.78 -150.77,-52.43 90.89,205.79 157.41,-28.76 194.56,239.11 237.08,0 -17.75,28.8 81.18,-62.73z"/>
  </g>
 </g>
</svg>
