<?xml version="1.0" encoding="UTF-8"?>
<!DOCTYPE svg PUBLIC "-//W3C//DTD SVG 1.1//EN" "http://www.w3.org/Graphics/SVG/1.1/DTD/svg11.dtd">
<!-- Creator: CorelDRAW 2018 (64 Bit Versión de evaluación) -->
<svg xmlns="http://www.w3.org/2000/svg" xml:space="preserve" width="150mm" height="179mm" version="1.1" style="shape-rendering:geometricPrecision; text-rendering:geometricPrecision; image-rendering:optimizeQuality; fill-rule:evenodd; clip-rule:evenodd"
viewBox="0 0 21590 27940"
 xmlns:xlink="http://www.w3.org/1999/xlink">
 <defs>
  <style type="text/css">
   <![CDATA[
    .fil0 {fill:#4B4B4D}
   ]]>
  </style>
 </defs>
 <g id="Capa_x0020_1">
  <metadata id="CorelCorpID_0Corel-Layer"/>
  <g id="_2528862485840">
   <path class="fil0" d="M16947.28 10589.78c0,-69.47 40.6,-94.13 103.55,-94.13 71.7,0 291.83,182.64 291.83,310.62 0,72.13 -59.66,84.72 -112.97,84.72 -60.63,0 -282.41,-191.23 -282.41,-301.21zm-75.31 0c0,122.33 105.82,237.3 184.09,295.98 88.75,66.54 218.36,141.69 311.2,29.83 99.29,-119.61 49.46,-205.57 -29.83,-311.17 -213.71,-284.59 -465.46,-197.17 -465.46,-14.64z"/>
   <path class="fil0" d="M9952.87 17592.97c0,-33.99 -1.58,-49.23 21.13,-73.01 117.09,-122.62 374.25,172.25 374.25,270.68 0,69.47 -40.6,94.13 -103.55,94.13 -85.73,0 -291.83,-210.25 -291.83,-291.8zm-75.31 -9.41c0,89.75 39.5,139.29 81.74,191.24 98.12,120.66 297.45,290.36 431,114.36 93.19,-122.82 4.43,-245.7 -86.71,-336.25 -255.79,-254.1 -426.03,-107.11 -426.03,30.65z"/>
   <path class="fil0" d="M8785.57 17423.54c0,-73.34 30.21,-103.55 103.55,-103.55 71.7,0 291.83,182.65 291.83,310.63 0,72.13 -59.66,84.72 -112.97,84.72 -78.03,0 -282.41,-210.75 -282.41,-291.8zm-75.31 -9.42c0,165.4 215.56,352.57 330.22,376.55 66.96,14.01 123.1,-6.65 164.44,-51.36 43.56,-47.11 67.04,-91.5 53.07,-156.68 -14.53,-67.77 -46.08,-105.6 -82.27,-153.86 -215.85,-287.83 -465.46,-193.87 -465.46,-14.65z"/>
   <path class="fil0" d="M17945.14 9601.42c0,-62.95 24.66,-103.54 94.13,-103.54 94.45,0 301.24,190.72 301.24,310.63 0,60.23 -45.98,84.71 -103.55,84.71 -82.55,0 -291.82,-209.26 -291.82,-291.8zm-75.31 -9.41c0,59.45 17.36,97.73 41.37,137.48 42.38,70.17 116.35,136.93 181.63,185.49 194.15,144.39 332.41,-29.85 332.41,-115.89 0,-138.27 -255.82,-435.59 -435.83,-370.33 -56.7,20.56 -119.58,88.69 -119.58,163.25z"/>
   <path class="fil0" d="M16608.38 8264.79c0,-47.42 7.06,-103.54 94.14,-103.54 77.51,0 139.32,68.66 181.22,110.6 58.7,58.78 120.02,112.35 120.02,200.03 0,60.23 -45.98,84.71 -103.55,84.71 -84.16,0 -291.83,-209.93 -291.83,-291.8zm-75.31 -28.24c0,106.85 57.72,200.52 129.33,266.04 73.8,67.52 146.95,129.3 247.22,129.3 157.25,0 291.01,-220.06 -7.92,-462.72 -27.74,-22.52 -52.09,-38.25 -84.13,-57.07 -174.28,-102.33 -284.5,62.18 -284.5,124.45z"/>
   <path class="fil0" d="M16429.52 3097.11c0,-176.74 155.29,-122.9 280.16,2.25 54.01,54.13 115.22,115.72 115.22,195.42 0,72.14 -59.66,84.72 -112.96,84.72 -77,0 -282.42,-211.81 -282.42,-282.39zm-75.31 -18.82c0,182.75 245.63,385.93 376.55,385.93 77.8,0 169.45,-71.39 169.45,-197.67 0,-97.85 -84.6,-171.34 -131.86,-225.84 -200.05,-230.69 -414.14,-114.29 -414.14,37.58z"/>
   <path class="fil0" d="M8955.02 18581.32c0,-66.48 42.32,-94.13 103.55,-94.13 67.59,0 291.82,182.63 291.82,310.63 0,72.13 -59.65,84.71 -112.96,84.71 -56.55,0 -137.95,-86.33 -171.81,-120 -29.88,-29.72 -40.29,-40.39 -66.37,-74.83 -24.14,-31.9 -44.23,-53.54 -44.23,-106.38zm-75.31 0c0,139.35 125.89,259.23 227.77,327.61 115.35,77.42 233.18,86.13 305.42,-48.64 67.42,-125.78 -86.36,-302.34 -161.89,-358.44 -58.18,-43.22 -105.18,-89.96 -201.86,-89.96 -86.83,0 -169.44,82.61 -169.44,169.43z"/>
   <path class="fil0" d="M9934.05 9573.18c0,-55.68 38.58,-94.13 103.55,-94.13 67.35,0 291.82,180.23 291.82,310.63 0,71.63 -53.36,84.72 -103.55,84.72 -61.1,0 -141.19,-80.15 -176.53,-115.29 -38.98,-38.75 -115.29,-116.53 -115.29,-185.93zm-75.31 -9.41c0,142.06 122.47,265.92 233.28,340.93 106.8,72.3 233.24,79.8 298.92,-53.53 87.53,-177.66 -193.74,-447.42 -362.76,-447.42 -100.62,0 -169.44,106.23 -169.44,160.02z"/>
   <path class="fil0" d="M16438.94 7097.59c0,-67.33 15.58,-103.54 112.96,-103.54 65.32,0 368.26,245.26 256.32,369.25 -104.68,115.97 -369.28,-185.8 -369.28,-265.71zm-75.31 -28.24c0,74.82 5.22,101.43 48.61,167.9 37.64,57.67 122.43,136.35 179.7,178 176.63,128.44 317.68,-24.74 317.68,-101.16 0,-125.2 -37.46,-173.95 -134.14,-270.63 -43.04,-43.04 -98.62,-92.67 -158.71,-114.27 -10.2,-3.67 -66.63,-19.85 -74.28,-19.85 -80.46,0 -178.86,82.77 -178.86,160.01z"/>
   <path class="fil0" d="M17606.24 7267.03c0,-129.32 124.46,-126.41 208.72,-58.09l141.2 141.19c115.42,142.32 -2.88,280.1 -148.54,167.35l-116.68 -109.24c-25.82,-33.58 -84.7,-87.01 -84.7,-141.21zm-75.31 -9.42c0,106.96 67.1,175.34 134.15,242.38 70.37,70.38 134.14,134.14 251.81,134.14 61.56,0 254.3,-107.68 113.14,-320.21 -58.67,-88.32 -206.99,-235.15 -320.24,-235.15 -86.02,0 -178.86,85.81 -178.86,178.84z"/>
   <path class="fil0" d="M10432.97 9074.3c0,-47.23 34.84,-94.13 94.14,-94.13 108.12,0 301.24,216.95 301.24,282.39 0,80.9 -15.81,112.95 -103.55,112.95 -80.99,0 -291.83,-203.06 -291.83,-301.21zm-75.31 -9.41c0,134.09 71.47,180.13 119.59,238.12 70.47,84.94 197.23,189.39 316.13,141.2 27.3,-11.06 61.75,-40.06 78.59,-62.73 92.44,-124.52 1.33,-248.75 -88.28,-337.82 -293.48,-291.72 -426.03,-44.6 -426.03,21.23z"/>
   <path class="fil0" d="M5537.83 21988.79c147.47,0 320.07,224.31 320.07,301.21 0,57.44 -42,94.13 -103.55,94.13 -76.27,0 -273.44,-180.26 -296.07,-288.16 -10.66,-50.88 22.55,-107.18 79.55,-107.18zm-160.03 94.13c0,120.34 144.86,267.22 236.9,327.89 243.7,160.65 462.01,-113.66 184.66,-372.91 -58.18,-54.39 -158.76,-133.83 -242.7,-133.83 -83.22,0 -178.86,95.63 -178.86,178.85z"/>
   <path class="fil0" d="M7053.44 20482.73c74.6,0 301.24,199.58 301.24,310.62 0,79.65 -96.67,133.68 -214.41,35.55 -71.45,-59.54 -228.73,-195.24 -172.01,-299.12 12.58,-23.05 54.52,-47.05 85.18,-47.05zm197.69 480.05c113.02,0 311.96,-155.13 49.43,-416.53 -33.86,-33.72 -59.06,-60.44 -100.48,-87.78 -120.14,-79.26 -246.81,-60.88 -304.06,55.13 -37.28,75.58 -9.64,150 29.63,209.86 53.35,81.3 203.1,239.32 325.48,239.32z"/>
   <path class="fil0" d="M11101.35 9742.62c0,-52.88 41.25,-94.13 94.14,-94.13 108.12,0 301.24,216.95 301.24,282.38 0,39.32 4.85,61.56 -17.26,86.3 -109.04,121.98 -378.12,-177.82 -378.12,-274.55zm-75.31 9.41c0,118.1 148.11,268.26 233.35,322.03 88.68,55.96 172.39,84.58 258.96,0.8 204.95,-198.33 -177.87,-501.68 -304.04,-501.68 -114,0 -188.27,85.67 -188.27,178.85z"/>
   <path class="fil0" d="M5368.38 20821.59c158.53,0 320.07,229.25 320.07,301.21 0,86.47 -103.63,156.75 -280.08,-21.16 -48.22,-48.62 -148.19,-146.08 -112.63,-229.62 13.27,-31.17 32.18,-50.43 72.64,-50.43zm-160.03 94.13c0,117.44 110.94,222.56 185.36,285.3 246.37,207.72 370.05,0.38 370.05,-78.22 0,-171.43 -245.69,-385.93 -376.55,-385.93 -83.22,0 -178.86,95.64 -178.86,178.85z"/>
   <path class="fil0" d="M7947.75 15588.02c0,-47.42 7.06,-103.54 94.13,-103.54 77.57,0 139.28,68.66 181.22,110.6 57.08,57.07 120.02,115.61 120.02,200.03 0,77.07 -92.18,122.51 -195.21,44.59 -36.04,-27.26 -48.79,-38.98 -80.15,-70.47 -36.21,-36.36 -120.01,-118.44 -120.01,-181.21zm-75.31 -28.24c0,79.5 2.74,101.12 48.68,167.82 48.06,69.79 107.67,132.07 178.81,178.9 191.61,126.14 318.5,-25.81 318.5,-101.98 0,-101.64 -10.45,-125.71 -92.65,-227.39 -233.01,-288.26 -453.34,-146.1 -453.34,-17.35z"/>
   <path class="fil0" d="M3447.98 20077.97c0,-80.37 75.98,-155.39 220.65,-41.78 256.71,201.6 187.38,351.35 74.49,339.49 -48.99,-5.15 -100.37,-42.11 -128.26,-69.23 -44.75,-43.55 -166.88,-156.09 -166.88,-228.48zm-75.31 -9.41c0,62.08 19.81,103.44 44.97,143.29 43.7,69.24 123.69,149.03 191.93,194.01 206.94,136.42 318.51,-59.45 318.51,-120.8 0,-100.27 -70.05,-179.46 -129.37,-247.16 -72.95,-83.25 -249.54,-203 -366.78,-88.94 -20.74,20.18 -59.26,81.61 -59.26,119.6z"/>
   <path class="fil0" d="M9613.98 15258.57c0,-86.05 40.55,-103.54 112.96,-103.54 74.4,0 282.42,208 282.42,282.39 0,290.44 -395.38,-52.63 -395.38,-178.85zm-75.31 -9.41c0,62.67 18.61,104.18 45.5,142.76 70.98,101.85 196.64,233.75 331.05,233.75 110.67,0 330.78,-162.18 -7.05,-463.59 -209.8,-187.18 -369.5,-35.46 -369.5,87.08z"/>
   <path class="fil0" d="M2939.64 16566.96c0,-52.88 41.25,-94.13 94.14,-94.13 108.12,0 301.24,216.95 301.24,282.39 0,83.43 -13.32,112.96 -103.55,112.96 -80.99,0 -291.83,-203.07 -291.83,-301.22zm-75.31 9.42c0,130.4 187.42,311.02 293.32,356.19 162.06,69.12 262.09,-84.7 262.09,-158.52 0,-131.68 -210.15,-376.52 -385.96,-376.52 -89.68,0 -169.45,88.85 -169.45,178.85z"/>
   <path class="fil0" d="M19272.47 6928.16c0,-111.52 129.23,-118.79 204.42,-53.8 82.29,71.13 190.96,150.66 190.96,270.3 0,106.7 -124.38,121.35 -273.45,-27.79 -33.46,-33.48 -121.93,-130.22 -121.93,-188.71zm-75.31 0c0,152.25 309.34,511.18 499.84,320.95 188.57,-188.3 -184.62,-499.79 -320.98,-499.79 -86.02,0 -178.86,85.81 -178.86,178.84z"/>
   <path class="fil0" d="M1442.86 18073.03c0,-66.31 37.24,-103.55 103.55,-103.55 54.83,0 291.82,159.38 291.82,329.46 0,59.8 -71.03,65.89 -112.96,65.89 -79.86,0 -282.41,-210.74 -282.41,-291.8zm-75.31 0c0,188.78 390.85,557.64 536.41,263.33 37.57,-75.97 1.56,-149.66 -35.39,-208.96 -35.12,-56.38 -149.45,-170.82 -212.12,-202.05 -173.02,-86.24 -288.9,34.89 -288.9,147.68z"/>
   <path class="fil0" d="M6196.79 14646.73c121.18,0 310.66,212.44 310.66,301.22 0,104.68 -101.87,131.27 -227.42,29.72 -53.33,-43.14 -159.99,-149.66 -172.78,-223.26 -9.45,-54.41 34.95,-107.68 89.54,-107.68zm-169.44 94.13c0,133.19 212.11,376.52 385.96,376.52 118.25,0 240.89,-151.62 119.94,-317.6 -47.38,-65.01 -113.62,-139.52 -183.75,-183.38 -117.21,-73.31 -230.1,-75.95 -299.81,52.68 -7.13,13.16 -22.34,58.05 -22.34,71.78z"/>
   <path class="fil0" d="M2450.13 21075.74c0,-114.5 130.82,-118.36 209.43,-49.39 78.08,68.51 185.94,153.79 185.94,265.88 0,69.52 -80.91,147.75 -237.64,2.3l-75.41 -75.2c-16.55,-17.9 -21.56,-20.36 -35.53,-39.78 -14.59,-20.28 -46.79,-70.65 -46.79,-103.81zm-75.31 0c0,159.62 314.22,510.21 499.73,320.84 121.3,-123.81 8.85,-268.89 -78.47,-356.14 -291.71,-291.5 -421.26,-55.87 -421.26,35.3z"/>
   <path class="fil0" d="M18444.06 9102.54c0,-86.05 40.55,-103.54 112.97,-103.54 74.4,0 282.41,207.99 282.41,282.38 0,141.84 -114.03,134.99 -199.14,67.34 -89.4,-71.06 -75.33,-62.22 -146.41,-145.39 -18.69,-21.87 -49.83,-65.57 -49.83,-100.79zm-75.31 -9.41c0,108.12 79.58,194.95 147.06,257.7 90.38,84.04 242.02,188.5 353.52,63.99 145.97,-163 -54.3,-352.14 -174.97,-440.18 -191.48,-139.7 -325.61,17.48 -325.61,118.49z"/>
   <path class="fil0" d="M3109.09 17734.16c0,-65.43 77.27,-143.21 195.21,-54 36.02,27.24 48.82,38.97 80.15,70.47 84.52,84.98 120.01,108.37 120.01,209.44 0,73.14 -57.75,75.3 -103.55,75.3 -90.09,0 -291.82,-208.43 -291.82,-301.21zm-75.31 9.41c0,93.02 72.53,172.88 129.37,237.75 67.74,77.3 238.11,205.73 362.94,85.09 18.51,-17.89 29.77,-28.12 41.63,-52.5 51.79,-106.45 -8.01,-190.62 -69.75,-263.84 -18.66,-22.13 -21.46,-29.81 -42.66,-51.47 -20.7,-21.16 -26.45,-25 -50.38,-43.76 -44.53,-34.91 -98.23,-90.11 -192.29,-90.11 -95.1,0 -178.86,85.31 -178.86,178.84z"/>
   <path class="fil0" d="M2779.61 19400.24c0,-78 92.4,-167.58 280.08,21.16 61.59,61.94 115.29,108.1 115.29,204.75 0,82.94 -114.1,125.85 -233.18,7.26 -49.4,-49.2 -162.19,-147.32 -162.19,-233.17zm-75.31 0c0,158.87 222.16,385.93 385.96,385.93 70.58,0 169.45,-100.4 169.45,-169.43 0,-70.19 -44.24,-151.09 -87.04,-195.36 -62.39,-64.51 -160.49,-190.57 -289.51,-190.57 -87.41,0 -178.86,85.06 -178.86,169.43z"/>
   <path class="fil0" d="M17935.72 5582.12c0,-65.38 78.44,-153.72 223.84,-26.15 45.45,39.87 60.37,46.58 100.25,97.43 51.85,66.12 71.29,67.59 71.29,154.63 0,80.08 -112.04,130.52 -232.95,7.01 -45.02,-45.99 -162.43,-131.98 -162.43,-232.92zm-75.31 9.41c0,202.15 397.82,546.27 533.97,270.34 70.65,-143.2 -83.8,-279.33 -164.27,-357.62 -173.92,-169.2 -369.7,-70.95 -369.7,87.28z"/>
   <path class="fil0" d="M13595.99 7248.2c0,-52.96 40.58,-94.13 112.96,-94.13 78.79,0 291.83,198.45 291.83,301.21 0,69.28 -76.35,143.89 -200.52,49.9 -59.85,-45.3 -204.27,-183.28 -204.27,-256.98zm-75.31 0c0,124.84 198.49,376.52 395.38,376.52 86.58,0 235.31,-139.18 114.53,-312.2 -60.84,-87.15 -214.27,-243.17 -321.64,-243.17 -89.13,0 -188.27,90.99 -188.27,178.85z"/>
   <path class="fil0" d="M11600.28 9243.73c0,-62.58 48.1,-94.13 112.96,-94.13 50.9,0 366.62,234.26 269.18,363.29 -103.77,137.41 -382.14,-176.13 -382.14,-269.16zm-75.31 9.42c0,125.53 247.75,429.14 435.98,360.76 103.13,-37.47 156.31,-159.53 75.59,-298.11 -24.3,-41.72 -52.87,-70.08 -85.59,-102.67 -78.35,-78.01 -138.04,-138.83 -256.54,-138.83 -89.11,0 -169.44,91.02 -169.44,178.85z"/>
   <path class="fil0" d="M15177.5 5657.42c102.33,0 121.15,31.78 204.75,115.31 232.98,232.82 57.3,296.95 -24.16,269.35 -77.13,-26.13 -208.86,-164.43 -246.89,-243.32 -28.49,-59.11 -11.72,-141.34 66.3,-141.34zm-150.62 65.89c0,84.27 -5.5,100.2 52.46,182.87 61.1,87.15 203.24,221.89 314.67,221.89 132,0 302.93,-164.58 44.74,-421.25 -275.58,-273.97 -411.87,-45.33 -411.87,16.49z"/>
   <path class="fil0" d="M9604.57 11248.68c0,-110.74 111.61,-136.37 200.01,-58.81 97.01,85.12 195.36,154.01 195.36,284.72 0,59.81 -71.03,65.89 -112.96,65.89 -79.86,0 -282.41,-210.74 -282.41,-291.8zm-75.31 0c0,188.78 390.85,557.64 536.41,263.33 37.57,-75.97 1.56,-149.65 -35.39,-208.95 -22.47,-36.07 -39.13,-44.91 -63.99,-77.21 -50.65,-65.79 -163.8,-156.02 -267.59,-156.02 -86.84,0 -169.44,88.05 -169.44,178.85z"/>
   <path class="fil0" d="M10112.91 14740.86c0,-84.48 107.02,-121.71 208.71,-39.26 14.71,11.93 19.66,19.45 33.85,32.04 69.31,61.47 152.81,131.72 152.81,233.13 0,78.67 -96.8,126.79 -204.34,34.9 -18.16,-15.52 -22.1,-20.82 -40.44,-34.87 -49.38,-37.81 -150.59,-149.01 -150.59,-225.94zm-75.31 9.41c0,172.63 330.3,504.17 494.85,325.39 120.75,-131.19 29.85,-257.52 -73.59,-360.69 -33.81,-33.72 -60.26,-61.27 -99.63,-88.63 -196.05,-136.23 -321.63,24.94 -321.63,123.93z"/>
   <path class="fil0" d="M12927.61 6570.47c0,-65.85 60.36,-84.71 112.97,-84.71 78.78,0 291.82,198.44 291.82,301.21 0,56.22 -78.81,151.17 -200.78,50.16 -67.37,-55.8 -204.01,-172.66 -204.01,-266.66zm-75.31 9.41c0,151 308.88,504.33 497.09,327.62 80.52,-75.6 68.49,-179.91 16.69,-257.75 -61.43,-92.33 -215.29,-248.71 -334.92,-248.71 -83.22,0 -178.86,95.63 -178.86,178.84z"/>
   <path class="fil0" d="M18434.65 3765.43c0,-145.5 121.94,-130.66 199.25,-67.46l115.42 110.51c14.79,18.93 21.5,23.34 35.2,40.1 118.53,144.96 -15.71,297.76 -196.79,121.47 -57.64,-56.11 -29.64,-13.07 -107.56,-108.94 -16.98,-20.89 -45.52,-61.67 -45.52,-95.68zm-75.31 -37.65c0,75.87 3.81,114.95 53.53,181.79 234.29,314.99 492.47,264.65 492.47,15.88 0,-38.29 -36.73,-98.14 -54.41,-124.44 -28.48,-42.35 -49.35,-59.27 -84.45,-94.41 -275.08,-275.43 -407.14,-30.6 -407.14,21.18z"/>
   <path class="fil0" d="M15930.6 6250.43c0,-104.46 113.05,-123.26 204.63,-54 36.04,27.26 48.78,38.98 80.14,70.47 34.91,35.05 120.02,121.89 120.02,181.2 0,57.31 -39.24,103.55 -103.55,103.55 -86.58,0 -301.24,-219.62 -301.24,-301.22zm301.24 376.52c112.03,0 254.47,-129.79 130.23,-318.48 -50.02,-75.96 -79.01,-96.68 -136.71,-145.69 -26.12,-22.18 -19.47,-23.26 -52.87,-41.26 -33.25,-17.92 -94.4,-49.93 -138.34,-49.93 -98.99,0 -255.17,139.05 -126.49,324.14 62.46,89.84 203.33,231.22 324.18,231.22z"/>
   <path class="fil0" d="M17276.76 8933.11c0,-62.95 24.66,-103.54 94.14,-103.54 94.45,0 301.24,190.71 301.24,310.62 0,60.23 -45.99,84.72 -103.55,84.72 -82.55,0 -291.83,-209.26 -291.83,-291.8zm-75.31 -9.42c0,156.26 220.47,376.52 376.55,376.52 93.29,0 182.83,-95.81 175.08,-184.97 -8.36,-96.19 -81.94,-178.45 -135.06,-231.57 -53.11,-53.11 -135.38,-126.69 -231.58,-135.04 -89.18,-7.75 -184.99,81.78 -184.99,175.06z"/>
   <path class="fil0" d="M9105.64 11738.15c0,-82.26 92.43,-130.7 193.89,-52.69 95.4,73.35 80.82,70.32 152.15,149.09 95.56,105.53 32.56,204.81 -16.56,204.81 -63.28,0 -82.8,2.96 -142.84,-45.43l-143.86 -147.96c-24.8,-32.22 -42.78,-54.4 -42.78,-107.82zm-75.31 -9.41c0,203.02 259.57,395.34 367.13,395.34 79.79,0 144.03,-59.41 169.33,-113.13 79.13,-167.98 -208.49,-442.23 -367.02,-442.23 -77.25,0 -169.44,86.34 -169.44,160.02z"/>
   <path class="fil0" d="M8286.64 17931.83c0,-283.5 395.38,33.7 395.38,197.67 0,72.13 -59.66,84.72 -112.97,84.72 -73.39,0 -282.41,-209.91 -282.41,-282.39zm-75.31 -37.65c0,119.57 32.22,168.76 134.11,270.66 33.12,33.12 113.28,97.2 158.67,114.31 169.97,64.09 253.22,-87.73 253.22,-140.23 0,-109.56 -17.44,-131.92 -91.22,-219.42 -64.48,-76.47 -41.43,-56.68 -137.15,-126.42 -171.75,-125.13 -317.63,15.04 -317.63,101.1z"/>
   <path class="fil0" d="M3617.43 21245.17c0,-108.06 122.74,-121.3 204.37,-53.74 54.29,44.93 191.01,162.88 191.01,232.59 0,55.74 -4.26,122.36 -84.73,122.36 -74.96,0 -145.99,-74.32 -187.32,-113.9 -43.26,-41.44 -123.33,-129.27 -123.33,-187.31zm-75.31 -9.41c0,107.8 72.92,190.75 129.35,247.17 90.76,90.75 246.68,209.38 366.7,88.82 84.6,-84.98 62.38,-172.75 12.04,-260.43 -54.75,-95.34 -217.72,-244.99 -329.23,-244.99 -85.49,0 -178.86,94.97 -178.86,169.43z"/>
   <path class="fil0" d="M10282.35 15926.89c0,-86.06 40.55,-103.55 112.97,-103.55 74.4,0 282.41,208 282.41,282.39 0,194.9 -175.72,104.84 -280.33,-2.08 -34.04,-34.8 -115.05,-124.95 -115.05,-176.76zm-75.31 -9.42c0,109.87 68.54,174.39 128.25,238.88l18.82 18.83c10.74,9.99 14.26,12.64 24.6,22.46 231,219.24 383.74,11.65 383.74,-73.08 0,-141.16 -259.63,-439.95 -436.04,-370.25 -56.95,22.51 -119.37,86.95 -119.37,163.16z"/>
   <path class="fil0" d="M15045.7 12491.18c86.1,0 301.24,202.24 301.24,310.63 0,72.13 -59.65,84.71 -112.96,84.71 -79.43,0 -289.51,-204.08 -287.8,-301.3 0.86,-48.69 39.49,-94.04 99.52,-94.04zm197.69 480.06c101.69,0 320.89,-145.1 44.72,-421.24 -54.72,-54.71 -139.13,-134.12 -242.41,-134.12 -73.34,0 -137.51,60.71 -160.4,112.64 -33.32,75.59 -3.32,151.46 36.47,208.96 54.47,78.71 198.75,233.76 321.62,233.76z"/>
   <path class="fil0" d="M5716.69 19146.1c80.74,0 301.24,204.25 301.24,310.62 0,114.1 -169.67,138.46 -337.66,-85.95 -22.98,-30.71 -66.25,-84.1 -64.3,-129.44 2.14,-49.77 40.83,-95.23 100.72,-95.23zm-178.86 94.12c0,152.48 241.53,385.93 376.55,385.93 129.77,0 243.45,-160.32 136.01,-314.83 -24.76,-35.6 -56.62,-72.11 -86.54,-101.73 -84.98,-84.12 -238.68,-213.38 -364.33,-86.53 -21.94,22.15 -61.69,80.79 -61.69,117.16z"/>
   <path class="fil0" d="M6008.52 13479.53l47.07 0c71.4,0 282.41,199.07 282.41,301.22 0,57.43 -42,94.13 -103.55,94.13 -68.84,0 -185.34,-118.14 -223.2,-162.75 -139.9,-164.85 -42.72,-232.6 -2.73,-232.6zm-150.62 94.13c0,143.24 230.23,376.52 376.55,376.52 136.39,0 298.74,-167.56 44.88,-421.39 -23.65,-23.65 -68.83,-63.77 -98.11,-80.75 -100.99,-58.56 -169.44,-79.43 -259.96,0.72 -18.98,16.81 -30.33,28.42 -41.9,52.24 -5.64,11.6 -21.46,61.72 -21.46,72.66z"/>
   <path class="fil0" d="M11939.17 10250.91c0,-71.22 35.16,-103.54 103.55,-103.54 78.67,0 291.83,207.09 291.83,282.39 0,62.16 -0.41,112.95 -112.97,112.95 -69.32,0 -282.41,-203.91 -282.41,-291.8zm-75.31 -9.41c0,183.84 258.46,385.93 367.14,385.93 130.57,0 281.1,-170.77 87.1,-378.89 -20.82,-22.33 -21.66,-31.49 -42.15,-51.99 -220.79,-220.82 -412.09,-103.66 -412.09,44.95z"/>
   <path class="fil0" d="M17097.9 3746.6c0,-64.66 43.03,-94.13 103.55,-94.13 63.51,0 291.83,182.02 291.83,310.63 0,89.04 -80.06,84.72 -112.97,84.72 -61.7,0 -282.41,-187.74 -282.41,-301.22zm-75.31 -9.41c0,65.27 11.05,111.46 46.8,160.29 49.2,67.19 119.24,141.29 191.36,185.17 40.92,24.9 76.19,49.88 138.39,49.88 77.5,0 256.09,-111.8 124.48,-322.14 -63.14,-100.93 -288.63,-329.17 -442.71,-184.32 -22.63,21.28 -58.32,71.27 -58.32,111.12z"/>
   <path class="fil0" d="M13925.47 5572.7c0,-74.81 69.13,-84.71 122.38,-84.71 72.22,0 282.41,199.11 282.41,301.21 0,48.18 -49.51,94.13 -94.14,94.13 -103.1,0 -310.65,-220.84 -310.65,-310.63zm-75.31 9.42c0,78.83 82.47,191.46 133.78,242.75 236.45,236.37 421.63,111.27 421.63,-54.49 0,-126.14 -301.44,-504.2 -497.04,-308.74 -31.32,31.3 -58.37,81.67 -58.37,120.48z"/>
   <path class="fil0" d="M8616.12 16256.34c0,-62.95 24.67,-103.54 94.14,-103.54 96.06,0 301.24,193.41 301.24,310.62 0,60.23 -45.98,84.72 -103.55,84.72 -85.42,0 -291.83,-208.67 -291.83,-291.8zm-75.31 -9.42c0,171.97 236.99,376.52 357.72,376.52 74.76,0 88.22,-3.61 148.58,-67.93 160.57,-171.14 -174.72,-474.53 -320.37,-482.84 -89.89,-5.13 -185.93,78.23 -185.93,174.25z"/>
   <path class="fil0" d="M11779.14 14420.82c0,-82.51 56.1,-94.13 112.96,-94.13 85.06,0 282.41,205.32 282.41,272.98 0,38.19 11.84,122.37 -94.13,122.37 -88.2,0 -301.24,-213.62 -301.24,-301.22zm-75.31 -9.41c0,173.38 308.14,507.68 496.59,336.53 100.57,-91.33 48.01,-234.48 -28.23,-315.38 -91.84,-97.44 -280.41,-298.24 -425.05,-119.03 -17.51,21.69 -43.31,68.11 -43.31,97.88z"/>
   <path class="fil0" d="M7373.51 18816.64c109.8,0 310.65,200.84 310.65,310.63 0,86.47 -118.46,131.54 -233.17,16.66l-98.58 -99.11c-125.29,-153.98 -45.53,-228.18 21.1,-228.18zm216.52 480.06c66.63,0 169.44,-68.68 169.44,-197.67 0,-89.65 -85.69,-175.11 -134.14,-223.56 -52.14,-52.13 -134.82,-134.13 -232.99,-134.13 -81.59,0 -146.04,55.81 -169.91,112.62 -75.96,180.85 223.2,442.74 367.6,442.74z"/>
   <path class="fil0" d="M7034.62 16482.25c112.59,0 310.65,199.81 310.65,310.62 0,72.13 -59.66,84.72 -112.97,84.72 -62.41,0 -181.8,-125.52 -218.88,-167.07 -22.7,-25.44 -65.41,-84.95 -68.67,-127.21 -3.93,-51.01 33.38,-101.06 89.87,-101.06zm188.27 470.64l47.07 0c116.2,0 262.18,-210.32 17.62,-412.96 -100.6,-83.34 -111.25,-132.99 -262.38,-132.99 -60.86,0 -127.36,68.35 -145.21,118.62 -61.59,173.57 218.05,427.33 342.9,427.33z"/>
   <path class="fil0" d="M7458.23 20096.8c0,-139.33 113.1,-149.02 233,-35.3 17.69,16.77 27.05,21.01 41.33,33.97l70.16 80.45c110.71,140.11 10.1,203.26 -15.01,203.26 -60.92,0 -94.45,-0.51 -143.63,-44.63 -14.52,-13.02 -18.48,-19.66 -33.85,-32.05 -50.07,-40.37 -152,-137.14 -152,-205.7zm291.83 367.1c96.36,0 178.86,-75.72 178.86,-197.67 0,-114.94 -219.06,-357.69 -376.55,-357.69 -75.96,0 -262.51,108.54 -122.54,320.2 51.67,78.13 198.29,235.16 320.23,235.16z"/>
   <path class="fil0" d="M15431.67 6758.73c0,-94.29 51.8,-103.54 112.96,-103.54 86.07,0 291.83,210.79 291.83,291.8 0,54.01 -40.49,103.54 -94.14,103.54 -116.54,0 -310.65,-237.86 -310.65,-291.8zm291.82 367.1c186.13,0 278.52,-227.99 55.28,-412.95 -46.14,-38.23 -136.38,-142.41 -243.55,-142.41 -68.22,0 -139.04,64.07 -160.39,112.63 -33.6,76.45 -8.85,146.72 30.22,205.79 52.33,79.12 197.92,236.94 318.44,236.94z"/>
   <path class="fil0" d="M16429.52 5751.55c0,-92.83 69.82,-94.13 122.38,-94.13 78.95,0 282.41,211.12 282.41,291.8 0,53.93 -43.58,103.54 -94.13,103.54 -109.32,0 -310.66,-230.2 -310.66,-301.21zm301.24 376.52c92.02,0 178.86,-79.51 178.86,-188.26 0,-138.35 -236.11,-367.11 -376.55,-367.11 -101.35,0 -253.55,140.36 -126.51,324.18 60.83,88.04 209.22,231.19 324.2,231.19z"/>
   <path class="fil0" d="M4869.46 21320.47c95.52,0 122.21,33.43 204.76,115.29 33.78,33.49 115.3,119.58 115.3,176.51 0,53.93 -43.58,103.54 -94.13,103.54 -97.53,0 -290.25,-195.26 -306.02,-287.61 -8.97,-52.54 22.71,-107.73 80.09,-107.73zm-160.04 94.13c0,139.91 224.79,376.52 376.55,376.52 116.43,0 249.86,-137.32 130.29,-318.53 -14.21,-21.53 -25.85,-31.55 -42.65,-51.49 -35.73,-42.41 -97.75,-108.96 -146.98,-135.42 -33.34,-17.92 -94.32,-49.92 -138.35,-49.92 -83.22,0 -178.86,95.63 -178.86,178.84z"/>
   <path class="fil0" d="M5603.73 15239.75c0,-50.47 43.5,-94.13 112.96,-94.13 76.66,0 369.94,239.58 269.26,363.36 -111.46,137.04 -382.22,-192.72 -382.22,-269.23zm-75.31 0c0,96.99 82.35,190.66 134.1,242.42 32.43,32.42 65.32,61.15 101.04,87.23 190.16,138.87 483.96,-51.34 202.92,-353.51 -263.06,-282.83 -438.06,-93.94 -438.06,23.86z"/>
   <path class="fil0" d="M2280.68 19908.54c0,-64.6 42.52,-99.06 93.86,-99.47 109.88,-0.87 301.52,213.37 301.52,287.73 0,162.77 -149.99,117.06 -228.42,40.13 -47.6,-46.68 -166.96,-147.6 -166.96,-228.39zm-75.31 0c0,143.19 217,376.52 385.96,376.52 34.14,0 256.62,-76.08 122.12,-310.37l-83.13 -105.13c-16.69,-18.39 -29.66,-23.3 -50.74,-43.39 -203.41,-193.85 -374.21,-47.9 -374.21,82.37z"/>
   <path class="fil0" d="M9943.46 13573.66c0,-94.26 126.48,-114.58 209.53,-40.08 77.66,69.66 185.85,152.69 185.85,265.99 0,80.23 -96.27,118.79 -194.05,43.43l-119.54 -115.8c-14.7,-17.63 -21.29,-22.85 -34.95,-40.35 -23.86,-30.58 -46.84,-57.81 -46.84,-113.19zm-75.31 9.42c0,148.32 222.4,376.51 385.96,376.51 52.53,0 254.98,-97.5 115.07,-322.14 -59.53,-95.56 -291.07,-332.98 -447.08,-179.28 -26.35,25.96 -53.95,75.13 -53.95,124.91z"/>
   <path class="fil0" d="M4935.35 14571.43c0,-20.05 18.23,-54.74 28.33,-65.8 112.18,-122.88 376.46,177.96 376.46,272.88 0,66.96 -49.38,94.13 -112.96,94.13 -66.26,0 -221.35,-162.23 -244.5,-197.92 -12.78,-19.71 -47.33,-75.58 -47.33,-103.29zm-75.31 0c0,137.02 212.45,376.52 385.97,376.52 114.06,0 265.03,-155.71 86.86,-359.83l-70.18 -71.03c-57.57,-50.6 -163.56,-161.01 -283.02,-108.56 -53.59,23.53 -119.63,91.21 -119.63,162.9z"/>
   <path class="fil0" d="M10931.9 8575.42c0,-22.5 11.07,-48.02 22.57,-62.16 108.27,-133.12 372.81,180.48 372.81,250.42 0,83.42 -13.32,112.95 -103.55,112.95 -85.76,0 -291.83,-210.24 -291.83,-301.21zm-75.31 -9.42c0,187.83 265.54,385.93 338.9,385.93 69.36,0 110.16,2.84 162.66,-53.85 115.41,-124.61 15.88,-262.79 -75.54,-353.3 -100.71,-99.69 -142.41,-138.79 -275.4,-138.79 -65.32,0 -150.62,96.84 -150.62,160.01z"/>
   <path class="fil0" d="M11939.17 11587.54c0,-57.31 39.23,-103.54 103.55,-103.54 76.05,0 279.01,185.51 296.54,287.68 17.06,99.43 -91.45,149.59 -199.93,67.54 -59.41,-44.93 -200.16,-177.87 -200.16,-251.68zm-75.31 0c0,44.53 26.25,104.47 44.91,133.95 19.83,31.34 58.08,77.83 84.26,104 300.57,300.55 426.24,16.57 426.24,-30.86 0,-49.65 -24.33,-110.78 -44.89,-143.37l-133.95 -148.45c-20.04,-15.46 -30.29,-28.87 -50.93,-43.21 -163.21,-113.41 -325.64,-11.11 -325.64,127.94z"/>
   <path class="fil0" d="M11609.69 13253.62c0,-83.74 79.83,-152.38 220.65,-41.78 331.45,260.32 125.66,444.83 -53.77,270.26 -45.86,-44.63 -166.88,-153.6 -166.88,-228.48zm-75.31 -9.41c0,108.11 77.43,195.16 134.04,251.9 91.14,91.34 246.23,197.86 365.8,78.46 96.86,-96.72 45.9,-228.99 -31.47,-309.22 -30.61,-31.74 -90.43,-106.08 -145.01,-137.39 -83.62,-47.97 -184.04,-81.23 -264.1,-3.34 -20.75,20.18 -59.26,81.6 -59.26,119.59z"/>
   <path class="fil0" d="M4775.32 17404.71c0,-50.47 43.5,-94.13 112.96,-94.13 71.43,0 291.83,212.62 291.83,301.21 0,82.52 -56.1,94.13 -112.97,94.13 -87.18,0 -291.82,-213.52 -291.82,-301.21zm-75.31 9.41c0,48.46 30.18,102.9 50.81,137.46 42.09,70.52 212.47,239.06 325.74,239.06 77.22,0 328.03,-139.12 49.43,-416.53 -61.89,-61.62 -138.05,-138.83 -247.12,-138.83 -100.86,0 -178.86,93.46 -178.86,178.84z"/>
   <path class="fil0" d="M7938.33 11587.54c0,-142.61 124.25,-128.77 199.26,-67.45l150.68 150.54c85.87,105.27 38.47,205.23 -48.54,204.75 -103.08,-0.56 -301.4,-215.89 -301.4,-287.84zm-75.31 -18.82c0,118.39 56.38,174.04 134.14,251.8 249.23,249.21 411.86,99.08 411.86,-63.55 0,-117.81 -221.14,-357.68 -376.55,-357.68 -84.96,0 -169.45,81.77 -169.45,169.43z"/>
   <path class="fil0" d="M19940.85 7596.48c0,-82.52 56.09,-94.13 112.96,-94.13 85.06,0 282.41,205.31 282.41,272.97 0,38.2 11.84,122.37 -94.13,122.37 -99.46,0 -301.24,-222.72 -301.24,-301.21zm-75.31 -9.42c0,173.38 308.14,507.68 496.59,336.53 189.15,-171.77 -157.88,-505.96 -317.73,-505.96 -78.64,0 -178.86,94.97 -178.86,169.43z"/>
   <path class="fil0" d="M16024.73 7492.93c87.1,0 127.29,47.27 195.34,115.31 46.39,46.39 115.32,110.49 115.32,185.91 0,148 -182.11,119.03 -329.68,-75.11 -22.82,-30.03 -63.6,-78.31 -69.22,-126.67 -5.62,-48.32 31.38,-99.44 88.24,-99.44zm-160.03 84.72c0,108.15 30.01,137.16 91.22,210 38.9,46.3 89.26,97.87 142.01,130.98 188.13,118.03 312.77,-29.63 312.77,-105.66 0,-121.68 -40.44,-177 -134.11,-270.66 -32.36,-32.35 -57.69,-55.56 -98.11,-80.74 -95.77,-59.68 -160.49,-76.47 -253.69,-2.68 -33.11,26.21 -60.09,63.47 -60.09,118.76z"/>
   <path class="fil0" d="M6385.07 19814.41c80.74,0 301.24,204.25 301.24,310.63 0,74.15 -76.45,99.97 -137.36,81.68 -79.97,-24.02 -225.45,-174.19 -254.49,-255.35 -24.48,-68.44 12.88,-136.96 90.61,-136.96zm-178.86 94.13c0,152.48 241.52,385.93 376.55,385.93 105.45,0 318.65,-148.94 44.73,-421.25 -32.27,-32.09 -56.29,-57 -95.79,-83.06 -214.13,-141.29 -325.49,62.04 -325.49,118.38z"/>
   <path class="fil0" d="M20439.78 7088.18c0,-74.81 69.12,-84.72 122.37,-84.72 64.42,0 275.31,193.47 279.46,292.97 2.18,52.13 -38.54,102.38 -91.18,102.38 -101.15,0 -310.65,-209.49 -310.65,-310.63zm-75.31 0c0,168.85 307.2,508.52 496.59,336.53 79.89,-72.55 63.51,-184.69 13.92,-263.4l-84.42 -103.84c-20.97,-22.91 -29.48,-22.48 -51.73,-42.4 -247.76,-221.77 -374.36,12.51 -374.36,73.11z"/>
   <path class="fil0" d="M8776.16 13423.06c0,-157.51 158.89,-104.33 209.53,-58.91 17.24,15.47 18.99,20.43 39.29,36.02 23.64,18.16 19.63,11.01 39.21,36.09 49.83,63.81 107.34,94.1 107.34,193.88 0,66.52 -85.4,127.43 -193.99,43.37 -59.28,-45.89 -201.38,-176.25 -201.38,-250.45zm-75.31 -28.24c0,130.07 54.02,181.2 129.43,256.5 72.41,72.3 140.66,138.84 256.53,138.84 59.45,0 136.01,-70.75 153.75,-119.48 28.55,-78.42 -4.65,-146.57 -40.62,-200.72 -42.9,-64.59 -134.66,-160.71 -206.87,-197.91 -87.95,-45.3 -149.92,-54.48 -228.14,8 -25.77,20.58 -64.08,72.53 -64.08,114.77z"/>
   <path class="fil0" d="M12598.13 8245.97c0,-20.05 18.24,-54.74 28.33,-65.8 112.6,-123.34 376.46,181.37 376.46,272.88 0,128.54 -167.56,128.38 -286.57,-24.08 -25.62,-32.83 -48.99,-48.02 -71.43,-79.18 -12.86,-17.86 -46.79,-75.66 -46.79,-103.82zm-75.31 9.41c0,109.72 196.08,367.1 385.97,367.1 175.95,0 285.87,-265.53 -65.73,-499.05 -200.18,-132.94 -320.24,29.85 -320.24,131.95z"/>
   <path class="fil0" d="M14104.33 10749.8c0,-50.47 43.51,-94.13 112.97,-94.13 64.82,0 291.82,189.31 291.82,310.62 0,72.13 -59.66,84.72 -112.96,84.72 -85.61,0 -291.83,-214.63 -291.83,-301.21zm-75.31 9.41c0,136.42 240.11,376.51 376.55,376.51 84.36,0 178.86,-84.04 178.86,-188.25 0,-156.66 -332.47,-502.45 -499.04,-310.75 -27.05,31.13 -56.37,64.54 -56.37,122.49z"/>
   <path class="fil0" d="M4455.25 23080.68c0,-70.6 53.84,-94.12 112.97,-94.12 78.69,0 285.31,199.34 288.87,292.93 2.76,72.46 -42.34,102.41 -110.01,102.41 -81.1,0 -291.83,-217.82 -291.83,-301.22zm-75.31 0c0,151.94 235.07,376.52 367.14,376.52 169.14,0 262.15,-185.09 105.91,-360.05 -32.78,-36.72 -106.32,-112.06 -145.11,-137.29 -219.49,-142.76 -327.94,44.07 -327.94,120.82z"/>
   <path class="fil0" d="M16109.46 8782.5c0,-49.77 -10.39,-122.37 103.55,-122.37 72.73,0 291.82,182.47 291.82,310.63 0,72.13 -59.65,84.71 -112.96,84.71 -79.76,0 -282.41,-224.72 -282.41,-272.97zm-75.31 -47.06c0,114.42 42.08,179.11 129.16,266.19 257.45,257.42 416.83,64.53 416.83,-21.46 0,-101.63 -10.45,-125.7 -92.65,-227.39 -35.3,-43.68 -91.61,-92.04 -140.63,-122.94 -209.99,-132.39 -312.71,50.06 -312.71,105.6z"/>
   <path class="fil0" d="M11948.59 15578.61c0,-82.51 115.6,-122.3 209.43,-39.98 105.59,92.65 51.8,41.77 141.1,141.3 107.05,119.32 18.93,299.28 -158.4,158.38 -67.3,-53.47 -192.13,-171.38 -192.13,-259.7zm-75.31 9.41c0,145.93 224.72,376.52 376.54,376.52 112.5,0 310.61,-146.12 44.72,-411.82 -33.78,-33.75 -57.97,-63.56 -99.1,-89.17 -25.42,-15.82 -99.84,-54.37 -133.89,-54.37 -90.96,0 -188.27,90.32 -188.27,178.84z"/>
   <path class="fil0" d="M10781.28 15409.18c0,-84.49 107.03,-121.71 208.72,-39.27 78.95,64.02 186.66,157.88 186.66,265.18 0,78.67 -96.81,126.79 -204.35,34.89l-80.48 -70.13c-50.5,-57.58 -110.55,-122.83 -110.55,-190.67zm-75.31 0c0,190.79 325.12,507.7 496.06,335.99 158.86,-159.58 -59.43,-371.6 -170.19,-445.33 -222.63,-148.19 -325.87,51.38 -325.87,109.34z"/>
   <path class="fil0" d="M4285.8 21904.07c0,-102.57 152.92,-149.53 333.5,80.7 31.83,40.57 65.79,64.15 68.32,127.53 3.29,82.33 -70.92,148.76 -198.74,59.36 -23.39,-16.35 -21.54,-16.09 -40.83,-34.48 -61.02,-58.16 -162.25,-146.44 -162.25,-233.11zm-75.31 9.42c0,105.76 108.02,227.77 178.84,282.4 19.96,15.4 30.4,29.01 50.95,43.19 179.95,124.22 325.62,-6.38 325.62,-127.92 0,-140.75 -237.74,-376.52 -376.54,-376.52 -83.23,0 -178.87,95.63 -178.87,178.85z"/>
   <path class="fil0" d="M12937.03 10580.36c0,-50.46 43.5,-94.13 112.96,-94.13 56.4,0 138.11,86.33 171.8,120.02 38.58,38.58 120.03,112.94 120.03,181.2 0,82.51 -56.1,94.13 -112.97,94.13 -87.18,0 -291.82,-213.53 -291.82,-301.22zm-75.31 9.42c0,142.49 246.54,376.51 376.55,376.51 77.22,0 328.03,-139.12 49.43,-416.53 -61.89,-61.62 -138.05,-138.83 -247.12,-138.83 -100.86,0 -178.86,93.46 -178.86,178.85z"/>
   <path class="fil0" d="M1113.38 19748.52c0,-69.77 30.8,-116.24 108.32,-107.9 57.85,6.22 133.84,71.62 172.1,109.88 58.72,58.72 114.95,121.78 114.95,205.1 0,70.61 -97.83,139.09 -232.89,6.97 -51.51,-50.39 -162.48,-137.38 -162.48,-214.05zm-75.31 -9.41c0,199.8 396.46,549.01 533.96,270.33 70.84,-143.55 -83.4,-277.03 -159.58,-352.89 -25.64,-25.54 -50.01,-42.45 -82.26,-58.94 -14.97,-7.65 -85.2,-37.35 -103.85,-37.35 -100.99,0 -188.27,78.47 -188.27,178.85z"/>
   <path class="fil0" d="M5443.69 18073.03c0,-50.47 43.51,-94.13 112.97,-94.13 57.86,0 291.82,193.8 291.82,310.62 0,72.13 -59.65,84.72 -112.96,84.72 -87.13,0 -291.83,-214.87 -291.83,-301.21zm-75.31 9.41c0,137.18 240,376.51 376.55,376.51 89.03,0 323.01,-144.12 49.43,-416.53 -288.48,-287.24 -425.98,-52.38 -425.98,40.02z"/>
   <path class="fil0" d="M8107.78 12754.74c0,-90.01 26.77,-103.54 112.97,-103.54 33.83,0 74.88,28.54 95.75,45.45 70.47,57.14 186.66,164.65 186.66,255.76 0,56.08 -41.82,91.94 -93.99,92.32 -57.65,0.42 -96.01,-36.47 -129.85,-66.17 -49.21,-43.16 -171.54,-149.57 -171.54,-223.82zm-75.31 -18.82c0,192.35 254.09,385.92 367.14,385.92 96.69,0 178.86,-93.01 178.86,-150.6 0,-131.31 -35.79,-172.03 -134.14,-270.63 -32.14,-32.21 -56.31,-57.04 -95.78,-83.08 -189.04,-124.72 -316.08,20.65 -316.08,118.39z"/>
   <path class="fil0" d="M7957.16 19597.91c0,-181.11 160.32,-116.99 275.53,-2.53 51.74,51.4 119.85,124.07 119.85,200.2 0,72.14 -59.66,84.72 -112.97,84.72 -76.58,0 -282.41,-207.04 -282.41,-282.39zm-75.31 -37.65l0 47.07c0,128.41 237.3,357.69 367.14,357.69 96.36,0 178.86,-75.72 178.86,-197.67 0,-91.83 -89.22,-178.57 -138.85,-228.27 -275.09,-275.43 -407.15,-30.59 -407.15,21.18z"/>
   <path class="fil0" d="M13106.47 11747.56c0,-44.62 45.96,-94.13 94.14,-94.13 106.64,0 310.66,220.71 310.66,301.22 0,82.51 -56.1,94.12 -112.97,94.12 -88.1,0 -291.83,-212.43 -291.83,-301.21zm-75.31 9.41c0,56.28 25.71,95.38 47.38,131.48 28,46.63 48.37,63.12 86.77,101.49 299.23,299.02 421.27,41.69 421.27,-35.29 0,-176.22 -374.92,-557.45 -536.39,-272.78 -11.26,19.85 -19.03,43.62 -19.03,75.1z"/>
   <path class="fil0" d="M6206.21 18647.21c64.88,0 104.23,36.88 148.71,77.21l38.09 37.22c57.61,63.59 123.85,108.89 123.85,196.2 0,72.13 -59.66,84.71 -112.97,84.71 -70.2,0 -181.56,-119.79 -219.5,-166.44 -128.65,-158.21 -40.39,-228.9 21.82,-228.9zm-169.45 94.13c0,154.56 251.42,385.93 367.13,385.93 114.47,0 328.59,-146.81 54.14,-421.23 -299.54,-299.51 -421.27,-10.59 -421.27,35.3z"/>
   <path class="fil0" d="M15996.49 5459.75c0,52.31 -49.41,95.66 -101.52,92.07 -99.18,-6.83 -300.75,-218.13 -299.24,-308.66 0.9,-54.11 44.52,-90.12 99.44,-89.88 88.44,0.4 171.68,106.34 233.27,167.44 30.16,29.92 68.05,82.37 68.05,139.03zm-470.69 -216.5c0,192.35 254.1,385.93 367.14,385.93 100.15,0 178.86,-76.95 178.86,-197.67 0,-124.72 -234.06,-357.69 -367.13,-357.69 -92.48,0 -178.87,76.38 -178.87,169.43z"/>
   <path class="fil0" d="M5867.31 16312.81c111.09,0 310.66,199.55 310.66,310.63 0,83.26 -104.62,112.41 -180.55,58.16l-68.17 -54.2c-55.58,-55.9 -144.94,-141.49 -152.68,-214.41 -5.37,-50.6 38.54,-100.18 90.74,-100.18zm-169.45 103.55c0,129.6 229.21,367.1 357.73,367.1 78.26,0 86.77,3.43 148.61,-58.48 118.68,-118.83 4.38,-264.01 -80.36,-348.63 -79.06,-78.94 -135.97,-138.84 -256.53,-138.84 -89.54,0 -169.45,91.99 -169.45,178.85z"/>
   <path class="fil0" d="M14367.92 11822.87c104.04,0 310.65,212.12 310.65,310.62 0,72.13 -59.66,84.72 -112.97,84.72 -72.04,0 -180.82,-118.89 -219.5,-166.45 -27.07,-33.29 -64.5,-73.92 -68.07,-127.92 -3.03,-46.02 35.09,-100.97 89.89,-100.97zm-169.45 94.12c0,155.02 247.02,385.93 376.55,385.93 91.98,0 325.3,-140.68 44.72,-421.23 -300.6,-300.58 -421.27,-5.55 -421.27,35.3z"/>
   <path class="fil0" d="M15026.88 8490.7c120.89,0 310.65,210.88 310.65,301.21 0,76.67 -53.41,94.13 -112.96,94.13 -59.67,0 -182.95,-126.79 -218.89,-167.06 -122.65,-137.45 -56.5,-228.28 21.2,-228.28zm197.69 470.65c147.11,0 270.8,-142.01 118.37,-344.28 -93.95,-124.67 -276.53,-288.38 -426.48,-152.06 -186.69,169.73 155.43,496.34 308.11,496.34z"/>
   <path class="fil0" d="M3438.57 16058.67c0,-53.06 49.41,-84.72 112.96,-84.72 51.87,0 346.97,220.58 276.68,351.51 -65.18,121.41 -227.78,-24.61 -279.18,-76.04 -37.26,-37.29 -110.46,-124.17 -110.46,-190.75zm-75.31 18.82c0,146.37 252.53,367.11 338.89,367.11 82.77,0 105.21,8.5 167.47,-58.46 171.72,-184.65 -185.89,-487.49 -308.67,-487.49 -120.73,0 -197.69,78.7 -197.69,178.84z"/>
   <path class="fil0" d="M14866.84 11323.98c107.46,0 310.66,203.18 310.66,310.63 0,72.13 -59.66,84.71 -112.97,84.71 -75.13,0 -281.03,-195.31 -287.57,-294.37 -3.04,-46.02 35.09,-100.97 89.88,-100.97zm207.11 480.06c57.95,0 91.37,-29.32 122.49,-56.36 188.96,-164.16 -145.71,-499 -320.18,-499 -85.43,0 -260.02,112.3 -122.54,320.2 50.65,76.58 201.58,235.16 320.23,235.16z"/>
   <path class="fil0" d="M14349.09 13799.57c0,56.69 -49.65,93.38 -102.39,91.18 -106.19,-4.43 -303.13,-221.06 -299.57,-306.57 3.49,-83.92 98.43,-143.63 234.81,-22.23 59.9,53.32 167.15,151.07 167.15,237.62zm-480.1 -216.49c0,157.66 236.85,385.92 376.55,385.92 101.89,0 250.91,-114.46 135.09,-313.92 -45,-77.48 -282.47,-348.3 -448.54,-187.75 -23.92,23.11 -63.1,75.58 -63.1,115.75z"/>
   <path class="fil0" d="M15365.77 10825.1c111.09,0 310.65,199.54 310.65,310.62 0,72.14 -59.65,84.72 -112.96,84.72 -76.41,0 -281.85,-204.07 -287.6,-294.34 -2.94,-46.09 35.09,-101 89.91,-101zm207.1 480.06c84.57,0 178.86,-99.13 178.86,-160.02 0,-128.03 -49,-175.96 -138.85,-265.92 -58.43,-58.51 -125.04,-129.42 -237.69,-129.42 -108.44,0 -250.73,140.08 -122.48,320.13 53.76,75.49 200.35,235.23 320.16,235.23z"/>
   <path class="fil0" d="M12108.62 12754.74c0,-53.92 43.58,-103.54 94.14,-103.54 96,0 261.7,182.96 289.2,238 66.18,132.4 -61.5,249.83 -235.21,75.12 -41.44,-41.68 -148.13,-139.66 -148.13,-209.58zm-75.31 0c0,147.38 310.3,510.22 499.84,320.95 185.79,-185.53 -173.44,-499.79 -320.98,-499.79 -89.47,0 -178.86,89.13 -178.86,178.84z"/>
   <path class="fil0" d="M14527.95 12990.06c91.34,0 147.03,66.99 195.33,115.31 45.11,45.13 124.74,112.75 124.74,195.32 0,78.92 -96.97,133.44 -214.42,35.55 -63.04,-52.54 -137.22,-117.86 -171.88,-195.5 -13.92,-31.18 -20.64,-57.14 -6.46,-90.77 17.95,-42.56 70.8,-59.91 72.69,-59.91zm-160.03 94.13c0,106.44 77.89,186.17 134.14,242.38 33.77,33.75 57.98,63.58 99.1,89.17 204.75,127.46 322.17,-12.18 322.17,-133.88 0,-137.77 -305.6,-493.92 -492.31,-313.42 -23.92,23.12 -63.1,75.58 -63.1,115.75z"/>
   <path class="fil0" d="M12438.1 11079.25c0,-44.63 45.95,-94.13 94.14,-94.13 111.83,0 310.65,228.42 310.65,301.21 0,82.52 -56.1,94.13 -112.96,94.13 -89.74,0 -291.83,-212.86 -291.83,-301.21zm-75.31 9.41c0,144.15 250.33,376.52 367.14,376.52 106.05,0 325.87,-151.16 58.88,-416.58 -282.71,-281.05 -426.02,-61.7 -426.02,40.06z"/>
   <path class="fil0" d="M15695.25 9159.02c113.85,0 310.66,198.91 310.66,310.62 0,72.13 -59.66,84.72 -112.97,84.72 -66.37,0 -280.19,-198.72 -287.55,-294.28 -3.93,-51.01 33.37,-101.06 89.86,-101.06zm-160.03 84.71c0,202.62 254.1,385.93 348.31,385.93l47.07 0c60.54,0 150.62,-90.07 150.62,-150.61 0,-108.01 -35.95,-173.04 -129.17,-266.18 -254.76,-254.59 -416.83,-74.49 -416.83,30.86z"/>
   <path class="fil0" d="M6705.13 18148.33c109.81,0 310.66,200.83 310.66,310.62 0,86.13 -117.73,131.8 -233.18,16.67l-71.89 -69.31c-36.77,-36.55 -91.7,-99.95 -95.47,-157.01 -3.04,-46.02 35.09,-100.97 89.88,-100.97zm207.11 480.06c91.21,0 323.61,-142.73 49.42,-416.53 -62.71,-62.62 -135.83,-138.83 -247.11,-138.83 -85.43,0 -260.02,112.3 -122.54,320.19 50.65,76.59 201.58,235.17 320.23,235.17z"/>
   <path class="fil0" d="M11440.24 10749.8c0,-33.07 2.95,-57.52 30.77,-82.19 77.34,-68.59 197.07,41.41 249.39,93.85 78.83,79 115.22,118.5 115.22,214.24 0,57.73 -73.02,65.9 -112.96,65.9 -61.84,0 -131.36,-79.6 -167.1,-115.31 -36.48,-36.46 -115.32,-112.28 -115.32,-176.49zm-75.31 -9.42c0,111.8 63.87,180.85 138.81,256.55 222.4,224.64 407.19,116.76 407.19,-68.29 0,-126.23 -224.26,-357.69 -367.14,-357.69 -90,0 -178.86,79.77 -178.86,169.43z"/>
   <path class="fil0" d="M14424.4 5073.82c0,-50.65 78.31,-156.49 232.61,-25.51 58.54,49.7 172.18,153.67 172.18,242.01 0,77.49 -82.48,145.08 -236.83,20.31 -44.85,-36.26 -167.96,-168.17 -167.96,-236.81zm-65.9 -18.82c0,97.53 -4.26,101.38 52.5,182.83 54.98,78.89 203.92,221.92 314.64,221.92 113.32,0 313.71,-153.85 44.74,-421.25 -275.59,-273.96 -411.88,-45.33 -411.88,16.5z"/>
   <path class="fil0" d="M16278.9 9940.29c0,-281.57 395.38,28.91 395.38,197.67 0,72.13 -59.66,84.71 -112.96,84.71 -73.4,0 -282.42,-209.9 -282.42,-282.38zm-75.31 -37.65c0,114.76 35.2,172.11 124.63,261.31 273.43,272.68 421.37,58.19 421.37,-16.58 0,-111.4 -37.59,-176.68 -133.88,-270.89 -23.57,-23.06 -66.18,-57.77 -93.61,-75.83 -197.58,-130.07 -318.51,32.49 -318.51,101.99z"/>
   <path class="fil0" d="M4944.77 18571.91c0,-44.63 45.95,-94.13 94.13,-94.13 79.32,0 142.92,72.28 185.92,115.31 39.55,39.56 124.74,116.21 124.74,185.9 0,82.52 -56.1,94.13 -112.97,94.13 -88.1,0 -291.82,-212.43 -291.82,-301.21zm-75.31 9.41c0,134.71 240.9,376.52 367.13,376.52 109.33,0 328.92,-146.55 54.17,-421.27 -272.57,-272.54 -421.3,-57.88 -421.3,44.75z"/>
   <path class="fil0" d="M15930.6 3596c0,-135.27 110.51,-135.63 193.89,-71.51 71.35,54.86 201.48,172.88 201.48,269.18 0,89.04 -80.05,84.71 -112.96,84.71 -77.09,0 -282.41,-205.83 -282.41,-282.38zm-75.31 -18.83c0,118.49 60.81,178.16 138.84,256.51 226.21,227.17 407.15,113.75 407.15,-68.25 0,-114.6 -216.82,-357.69 -376.55,-357.69 -84.95,0 -169.44,81.77 -169.44,169.43z"/>
   <path class="fil0" d="M10941.32 11239.27c0,-101.29 103.54,-122.79 193.99,-52.79l81.69 68.93c28.25,27.06 42.33,50.51 70.41,80.2 96.5,102.06 29.79,204.87 -16.61,204.87 -96.25,0 -139.59,-28.75 -221.54,-117.35 -42.95,-46.44 -107.94,-104.07 -107.94,-183.86zm-75.31 0c0,116.93 61.57,178.8 138.84,256.51 95.16,95.69 221.55,187.66 348.29,79.97 52.6,-44.69 58.86,-91.07 58.86,-148.23 0,-122.95 -222.91,-357.69 -376.55,-357.69 -84.29,0 -169.44,83.33 -169.44,169.44z"/>
   <path class="fil0" d="M7702.99 17150.56c112.33,0 310.65,198.31 310.65,310.63 0,72.13 -59.65,84.71 -112.96,84.71 -68.57,0 -281.55,-199.21 -287.61,-294.33 -2.93,-46.1 35.1,-101.01 89.92,-101.01zm-160.03 75.31c0,133.99 52.97,190.32 152.78,289.64 194.83,193.86 393.21,101.8 393.21,-82.56 0,-94.47 -104.58,-208.29 -175.77,-266.65 -83.37,-68.35 -109.97,-91.04 -219.6,-91.04 -60.55,0 -150.62,90.07 -150.62,150.61z"/>
   <path class="fil0" d="M13934.88 9582.6c0,-50.47 43.51,-94.13 112.97,-94.13 68.56,0 291.82,185.66 291.82,310.62 0,75.69 -87.39,127.95 -207.16,37.72 -61.2,-46.1 -197.63,-181.34 -197.63,-254.21zm-75.31 9.41c0,129.6 229.21,367.1 357.73,367.1l47.06 0c62.1,0 292.31,-136.37 21.19,-407.11 -89.98,-89.84 -137.91,-138.84 -265.94,-138.84 -72.76,0 -160.04,90.79 -160.04,178.85z"/>
   <path class="fil0" d="M16034.15 11493.41c111.09,0 310.65,199.55 310.65,310.63 0,72.13 -59.66,84.72 -112.96,84.72 -76.42,0 -281.86,-204.07 -287.61,-294.34 -2.94,-46.1 35.09,-101.01 89.92,-101.01zm-160.04 75.31l0 47.06c0,128.09 238.85,357.69 367.14,357.69 55.01,0 84.7,-24.73 117.27,-52.17 203.11,-171.12 -145.72,-503.19 -314.96,-503.19 -77.18,0 -169.45,77.79 -169.45,150.61z"/>
   <path class="fil0" d="M18604.1 6259.85c0,-112.61 126.23,-123.32 209.29,-49.26 79.88,71.23 186.08,146.84 186.08,265.75 0,73.24 -92.73,119.89 -199.37,39.34 -15.61,-11.8 -23.48,-23.27 -38.27,-37.04 -54.03,-50.28 -157.73,-138.27 -157.73,-218.79zm-75.31 0c0,144.53 215.21,376.51 385.96,376.51 52.53,0 254.98,-97.51 115.06,-322.14l-92.68 -104.99c-91.32,-84.56 -235.36,-191.56 -354.4,-74.29 -26.35,25.96 -53.94,75.13 -53.94,124.91z"/>
   <path class="fil0" d="M5104.8 15738.63c0,-50.47 43.5,-94.13 112.96,-94.13 72.26,0 368.65,241.18 269.27,363.37 -75.92,93.33 -210.45,-25.47 -262.81,-87.44 -26.15,-30.94 -119.42,-111.67 -119.42,-181.8zm-75.31 0c0,96.71 77.85,186.33 129.43,237.68 78.36,78.02 138.03,138.83 256.53,138.83 98.28,0 303.43,-144.07 40.01,-407.1 -79.05,-78.95 -135.97,-138.84 -256.52,-138.84 -97.78,0 -169.45,104.32 -169.45,169.43z"/>
   <path class="fil0" d="M18434.65 5092.65c0,-110.49 114,-130.8 195.09,-63.3 17.71,14.74 21.95,20.9 40.27,35.04 17.91,13.81 22.62,17.67 40.14,35.17 67.58,67.52 119.88,119.11 119.88,209.58 0,88.91 -121.06,116.5 -228.5,11.98 -47.01,-45.74 -166.88,-150.83 -166.88,-228.47zm-75.31 0c0,152.39 234.67,376.51 376.55,376.51 68.26,0 138.99,-64.06 160.4,-112.64 76.3,-173.12 -214.48,-442.72 -358.09,-442.72 -92.16,0 -178.86,85.46 -178.86,178.85z"/>
   <path class="fil0" d="M6865.17 15315.05c106.6,0 310.65,186.73 310.65,320.04 0,46.91 -47.68,75.3 -112.96,75.3 -63.07,0 -277.42,-191.19 -288.44,-295.16 -5.36,-50.61 38.54,-100.18 90.75,-100.18zm197.69 470.64c147.27,0 270.75,-142.35 118.37,-344.27l-115.28 -120.05c-260.25,-216.33 -440.86,34.79 -332.41,210.01 61.94,100.07 208.14,254.31 329.32,254.31z"/>
   <path class="fil0" d="M17436.79 4763.2c0,-60.76 23.66,-112.96 94.14,-112.96 88.46,0 301.24,214.31 301.24,291.8 0,60.26 -28.92,104.67 -86.89,108.75 -107.25,7.56 -308.49,-209.91 -308.49,-287.59zm-75.31 -37.66l0 47.07c0,122.65 295.09,482.73 487.07,308.18 131.69,-119.73 18.57,-277.45 -75.19,-371.74 -267.55,-269.07 -411.88,-53 -411.88,16.49z"/>
   <path class="fil0" d="M4276.39 17903.59c0,-44.62 45.95,-94.13 94.14,-94.13 102.18,0 310.65,212.1 310.65,310.63 0,64.23 -55.76,84.72 -112.96,84.72 -89.74,0 -291.83,-212.86 -291.83,-301.22zm-75.31 9.42c0,93.68 75.54,174.4 134.15,232.97 318.89,318.66 421.26,-0.07 421.26,-25.89 0,-105.64 -73.62,-191.7 -129.39,-247.14 -283.65,-281.98 -426.02,-60.54 -426.02,40.06z"/>
   <path class="fil0" d="M445 19080.21c0,-63.92 20.54,-116.15 101.61,-110.82 58.73,3.86 89.3,38.26 127.24,70.25 63.78,53.78 166.53,145.95 166.53,238.24 0,57.17 -45.51,90.3 -94.02,90.13 -49.17,-0.17 -98.75,-32.95 -129.65,-64.16 -36.88,-37.24 -171.71,-144.65 -171.71,-223.64zm-75.31 -18.83c0,181.77 250.16,385.93 367.14,385.93 106.76,0 260.35,-125.85 135.75,-314.59 -59.1,-89.51 -207.6,-240.77 -324.03,-240.77 -87.83,0 -178.86,80.32 -178.86,169.43z"/>
   <path class="fil0" d="M6036.76 17480.01c75.49,0 146.6,64.97 195.6,115.04 48.77,49.83 115.05,120.8 115.05,195.59 0,72.13 -59.65,84.71 -112.96,84.71 -77.96,0 -280.04,-200.05 -287.52,-294.31 -4.04,-50.95 33.39,-101.03 89.83,-101.03zm-169.45 103.55c0,136.42 240.11,376.51 376.55,376.51 89.75,0 325.85,-140.84 44.72,-421.23 -284.76,-284.01 -421.27,-41.34 -421.27,44.72z"/>
   <path class="fil0" d="M12937.03 9243.73c0,-47.23 34.83,-94.13 94.13,-94.13 106.35,0 292.7,200.51 305.46,287.19 9.33,63.32 -30.85,108.16 -107.77,108.16 -87.89,0 -291.82,-206.84 -291.82,-301.22zm-75.31 0c0,91.16 47.3,153.56 100.14,210.5 299.71,322.96 445.85,106.4 445.85,6 0,-115.06 -41.03,-168.71 -129.38,-256.55 -253.63,-252.17 -416.61,-77.57 -416.61,40.05z"/>
   <path class="fil0" d="M13934.88 8245.97c0,-71.85 53.29,-94.13 112.97,-94.13 58.55,0 181.42,120.3 211.33,155.79 27.82,32.99 80.49,101.46 80.49,145.42 0,50.47 -43.5,94.13 -112.96,94.13 -86.2,0 -291.83,-210.43 -291.83,-301.21zm-75.31 0c0,159.51 241.12,376.51 357.73,376.51 174.85,0 302.74,-173.68 58.84,-416.53 -54.07,-53.84 -131.18,-128.39 -230.7,-134.17 -88.42,-5.14 -185.87,82.23 -185.87,174.19z"/>
   <path class="fil0" d="M13181.78 13620.73c0,60.59 -41.88,98.99 -95.05,100.65 -52.77,1.66 -104.06,-37.29 -137.56,-65.73 -68.15,-57.85 -225.95,-200.52 -146.38,-300.88 105.68,-133.29 378.99,182.02 378.99,265.96zm-480.1 -207.09c0,149.81 290.95,516.68 500.55,331.08 145.89,-129.19 -25.97,-321.17 -130.49,-409.3 -86.95,-73.3 -204.77,-139.26 -308.42,-38.99 -22.54,21.8 -61.64,78.84 -61.64,117.21z"/>
   <path class="fil0" d="M16100.04 4763.2c0,-68.76 26.69,-120.9 109.29,-109.88 85.49,11.41 169.85,119.65 222.68,173.28 156.98,159.41 -6.87,315.13 -160.26,160.24 -39.26,-39.64 -171.71,-143.08 -171.71,-223.64zm-75.31 -18.83c0,118.39 56.38,174.05 134.14,251.8 249.23,249.21 411.86,99.08 411.86,-63.54 0,-126.21 -234.96,-357.69 -367.14,-357.69 -90,0 -178.86,79.77 -178.86,169.43z"/>
   <path class="fil0" d="M3937.5 15559.78c0,-54.54 86.66,-137.67 208.73,-39.28 77.1,62.15 254.83,217.94 173.49,317.93 -110.05,135.31 -382.22,-176.14 -382.22,-278.65zm-75.31 18.83c0,48.48 28.78,99.17 47.32,131.52 39.81,69.46 204.68,235.58 310.4,235.58 193.89,0 241.63,-184.57 146.88,-316.3 -92.06,-127.97 -301.48,-333.89 -455.66,-171.29 -26.7,28.16 -48.94,68.84 -48.94,120.49z"/>
   <path class="fil0" d="M11929.76 7568.24c0,-65.86 60.36,-84.72 112.96,-84.72 80.33,0 291.83,213.68 291.83,291.8 0,147.54 -178.13,131.15 -291.97,-18.69 -37.22,-48.99 -112.82,-105.59 -112.82,-188.39zm-75.31 0c0,156.55 216,385.93 385.96,385.93 90.28,0 175.6,-92.19 167.44,-185.89 -12.69,-145.94 -223.53,-347.68 -359.42,-366.13 -88.61,-12.03 -193.98,88.76 -193.98,166.09z"/>
   <path class="fil0" d="M7194.65 13648.97c136.73,0 310.65,221.5 310.65,301.21 0,135.12 -171.08,133.54 -329.67,-75.11 -20.48,-26.94 -65.54,-84.02 -71.56,-126.06 -7.46,-52.12 37.08,-100.04 90.58,-100.04zm-160.03 65.89c0,131.09 9.57,125.81 90,230.04l143.17 129.82c209.82,131.93 479.46,-75.66 178.72,-376.38 -32.36,-32.35 -57.7,-55.56 -98.11,-80.74 -225.37,-140.43 -313.78,61.91 -313.78,97.26z"/>
   <path class="fil0" d="M3617.43 17103.5l2.98 96.96c-8.99,104.65 -47.72,154.01 34.67,176.01 16.13,-33.6 37.66,-100.99 37.66,-150.6 64.5,43.19 282.8,305.06 338.89,320.03l49.21 -44.92c-13.01,-43.01 -268.9,-283 -319.85,-333.95 -48.2,-48.19 -82.03,-97.63 -124.73,-101.18 -11.38,16.98 -18.83,16.54 -18.83,37.65z"/>
   <path class="fil0" d="M13285.34 12764.15c0,137.51 28.56,41.32 -18.83,244.74l54.31 58.65c14.4,-54.65 39.83,-80.15 39.83,-152.78 40.07,10.7 205.47,191.33 247.11,232.97 28.12,28.12 51.08,66.79 91.78,77.66l49.21 -44.93c-14.32,-47.2 -398.52,-416.89 -425.76,-435.13 -22.96,15.37 -9.55,10.51 -37.65,18.82z"/>
   <path class="fil0" d="M3786.88 18270.7c0,65.52 10.05,57.81 2.06,114.37 -6.64,47.03 -17.71,73.33 -20.89,111.54l54.31 58.65c16.31,-62.86 39.83,-86.75 39.83,-162.2l247.11 242.39c28.12,28.12 51.08,66.78 91.78,77.65l49.21 -44.92c-33.75,-60.55 -48.28,-59.46 -90.69,-101.86l-120.74 -124c-9.42,-9.66 -14,-14.05 -23.96,-23.12 -48.71,-44.38 -156.16,-181.74 -209.2,-186.16 -11.37,16.99 -18.82,16.55 -18.82,37.66z"/>
   <path class="fil0" d="M5123.63 19588.5c0,137.51 28.57,41.32 -18.83,244.74l54.31 58.65c14.4,-54.65 39.83,-80.15 39.83,-152.78 39.27,10.48 60.03,45.89 87.07,72.95 42.53,42.53 211.55,226.92 251.82,237.67l49.21 -44.92c-13.12,-43.25 -68.6,-82.72 -98.63,-112.74 -67.27,-67.27 -284.35,-293.75 -327.13,-322.39 -22.96,15.37 -9.55,10.51 -37.65,18.82z"/>
   <path class="fil0" d="M4455.25 18939.01c0,62.58 11.45,59.58 3.33,115.64 -3.48,24.06 -4.18,35.96 -9.42,57.11 -10.12,40.89 -37.99,54.91 43.75,109.64 13.81,-59.27 37.65,-75.62 37.65,-160.02l247.11 242.38c28.12,28.13 51.08,66.79 91.79,77.66l49.2 -44.93c-13.34,-44.1 -72.5,-86.62 -103.33,-117.44l-232.11 -229.15c-41.39,-41.39 -62.11,-84.63 -109.14,-88.54 -11.38,16.99 -18.83,16.55 -18.83,37.65z"/>
   <path class="fil0" d="M12439.55 9603.03c40.57,178.74 -71.08,249.62 45.62,280.78 11.49,-49.32 36.37,-93.03 37.65,-150.61l327.23 322.3 60.91 -56.56c-3.64,-3.86 -5.79,-8.82 -6.42,-7.34l-97.21 -100.48c-19.09,-20.95 -31.41,-31.14 -52.71,-50.83 -1.43,-1.31 -3.52,-3.16 -4.91,-4.5l-50.32 -53.23c-38.39,-38.3 -69.94,-69.81 -108.32,-108.19 -30.83,-30.83 -73.35,-89.98 -115.32,-101.19l-36.2 29.85z"/>
   <path class="fil0" d="M5793.45 20267.83c-1.45,96.44 30.99,13.67 -20.28,233.72l54.31 58.65c18.3,-35.78 39.83,-103.16 39.83,-152.78 39.28,10.49 60.03,45.9 87.08,72.95 42.52,42.54 211.54,226.93 251.82,237.68l49.2 -44.93c-13.11,-43.25 -68.6,-82.71 -98.63,-112.74 -67.27,-67.26 -284.34,-293.74 -327.12,-322.39l-36.21 29.84z"/>
   <path class="fil0" d="M2487.78 17207.04c16.13,-33.6 37.66,-100.99 37.66,-150.61 64.5,43.19 282.79,305.06 338.89,320.04 26.01,-17.42 43.83,-26.95 47.07,-65.89 -35.15,-12.72 -1.25,5.14 -26.94,-20.13 -9.51,-9.36 -16.11,-18.38 -27.03,-29.45l-48.63 -45.5c-1.34,-1.4 -3.19,-3.49 -4.5,-4.91 -19.69,-21.3 -29.88,-33.62 -50.84,-52.71 -8.64,-7.88 -6.56,-5.33 -15.06,-13.18l-183.77 -183.35c-25.5,-26.71 -39.14,-55.02 -76.26,-64.94 -39.46,26.42 -32.8,17.42 -30.36,57.12 11.49,186.82 -55.35,228.11 39.77,253.51z"/>
   <path class="fil0" d="M9275.08 17009.37c0,20.24 37.23,41.92 56.49,47.06 9.17,-39.35 31.69,-78.95 37.65,-150.6l327.23 322.29 60.91 -56.56c-14.36,-20.37 -10.16,-12.63 -24.45,-26.96l-239.21 -240.87c-8.64,-7.87 -6.57,-5.33 -15.06,-13.18l-41.08 -43.64c-24.61,-25.85 -87.11,-93.55 -115.41,-101.1 -49.26,32.98 -28.63,30.28 -27.87,112.88 0.7,75.7 -19.2,96.87 -19.2,150.68z"/>
   <path class="fil0" d="M13765.44 12510.01l54.31 58.65c18.29,-35.78 39.82,-103.17 39.82,-152.78 45.45,10.58 29.59,15.8 87.06,72.96l160.05 160.01c28.13,28.12 51.08,66.79 91.79,77.65l49.21 -44.92c-13.35,-44.1 -72.51,-86.62 -103.34,-117.45l-216.52 -216.5c-30.83,-30.83 -73.35,-89.98 -115.31,-101.18l-10.78 8.16c-40.4,45.16 -7.38,56.99 -8.45,113.71 -0.75,39.78 -19.44,105.62 -27.84,141.69z"/>
   <path class="fil0" d="M9105.64 15842.17c0,20.24 37.23,41.92 56.48,47.06 6.7,-28.77 14.67,-42.38 22.31,-71.82 6.88,-26.54 9.74,-54.73 15.34,-78.78l327.23 322.29 60.91 -56.56 -432.88 -437.49c-50.85,34.82 -30.8,46.34 -30.19,124.63 0.59,75.6 -19.2,97 -19.2,150.67z"/>
   <path class="fil0" d="M12616.96 12114.66c0,66.09 15.87,84.02 -6.09,172.76 -10.12,40.89 -37.99,54.9 43.75,109.63 13.81,-59.27 37.65,-75.61 37.65,-160.02 64.51,43.19 282.8,305.06 338.89,320.04l49.21 -44.92c-11.38,-36.26 -65.39,-76.17 -108.09,-122.11l-227.35 -224.49c-1.1,-1.1 -127.97,-154 -127.97,-50.89z"/>
   <path class="fil0" d="M10649.49 10382.69c16.13,-33.6 37.65,-100.99 37.65,-150.6 64.51,43.19 282.8,305.06 338.9,320.03l49.21 -44.92c-18.2,-26.11 -24.83,-39.01 -46.52,-61.31 -23.19,-23.85 -39.96,-31.76 -59.1,-53.86 -18,-20.77 -26.22,-33.47 -50.08,-53.46 -57.21,-47.93 -239.21,-255.75 -279.47,-266.5 -61.33,41.06 -16.63,20.36 -28.52,169.16 -3.7,46.27 -51.21,117.66 37.93,141.46z"/>
   <path class="fil0" d="M17436.79 10185.02c0,20.25 37.23,41.93 56.49,47.07 9.16,-39.35 31.69,-78.96 37.65,-150.61l327.23 322.29 60.91 -56.56c-22.4,-32.37 -26.7,-22.93 -53.31,-54.58l-65.65 -66.14c-1.37,-1.36 -3.3,-3.37 -4.64,-4.77 -1.34,-1.4 -3.19,-3.49 -4.5,-4.91l-245 -244.49c-24.83,-25.28 -25.56,-41.1 -62.11,-50.86 -49.26,32.99 -28.63,30.28 -27.87,112.88 0.7,75.7 -19.2,96.87 -19.2,150.68z"/>
   <path class="fil0" d="M7779.75 14262.41c4.7,72.33 25.63,147.46 -20.28,243.13 30.8,20.62 29.31,37.3 65.9,47.06l37.65 -150.6 327.23 322.29 60.91 -56.56 -432.88 -437.49 -38.53 32.17z"/>
   <path class="fil0" d="M8278.68 13763.53c42.18,185.67 -72.05,258.78 45.62,290.19 6.72,-28.86 13.67,-41.55 20.99,-73.14 5.5,-23.73 5.85,-54.93 16.66,-77.47l327.23 322.3 60.91 -56.56 -432.88 -437.5 -38.53 32.18z"/>
   <path class="fil0" d="M16777.83 9271.97c4.81,57.81 9.42,27.34 9.42,122.37 0,70.5 -59.59,143.47 37.65,169.43 11.1,-47.63 25.57,-98.73 37.66,-150.61l327.22 322.3 60.91 -56.56 -268.7 -272.21c-19.01,-15.92 -13.8,-8.28 -30.32,-26.16 -8.89,-9.63 -14.91,-19.39 -25.46,-31.02 -19.52,-21.52 -38.13,-32.21 -54.68,-48.86 -23.48,-23.6 -23.32,-35.01 -56.04,-56.92 -13.52,11.75 6.56,-3.68 -15.38,12.86 -10.99,8.29 -13.12,9.25 -22.28,15.38z"/>
   <path class="fil0" d="M8448.13 14930.72c42.18,185.68 -72.05,258.78 45.61,290.2 11.1,-47.63 25.57,-98.73 37.66,-150.61l327.23 322.3 60.9 -56.56 -432.87 -437.5 -38.53 32.17z"/>
   <path class="fil0" d="M17108.76 7607.49c42.19,185.68 -72.04,258.78 45.62,290.2l37.66 -150.61 327.22 322.3 60.91 -56.56 -432.87 -437.5 -38.54 32.17z"/>
   <path class="fil0" d="M9774.01 16501.07c0,30.04 31.41,49.79 56.48,56.48 9.17,-39.35 31.7,-78.96 37.66,-150.61l327.23 322.3 60.91 -56.56 -432.88 -437.5c-48.62,71.45 -32.31,4.41 -30.34,114.87 0.48,27.12 2.09,56.42 -2.48,82.88 -3.88,22.45 -16.58,39.58 -16.58,68.14z"/>
   <path class="fil0" d="M7610.3 13095.21c4.71,72.34 25.63,147.47 -20.27,243.13 30.79,20.62 29.31,37.3 65.89,47.07 1.16,-13.88 33.33,-141.59 37.66,-150.61l327.22 322.29 60.91 -56.56 -432.87 -437.49 -38.54 32.17z"/>
   <path class="fil0" d="M16939.32 5103.66c1.57,134.03 28.8,32.47 -20.28,243.14l54.72 48.9c23.77,-43.43 39.42,-88.42 39.42,-152.45 39.27,10.49 60.03,45.9 87.07,72.95l242.41 247.09 64.05 -58.38 -428.86 -433.42 -38.53 32.17z"/>
   <path class="fil0" d="M1943.24 17425.14c40.65,179.11 -66.63,250.81 45.61,280.78 16.13,-33.6 37.66,-100.99 37.66,-150.6 64.5,43.19 282.8,305.06 338.89,320.03l49.21 -44.92c-12.22,-17.19 -34.1,-44.12 -47.6,-60.23 -24.49,-29.21 -35.56,-24.09 -59.67,-53.28 -61.12,-74.02 -42.86,-38.27 -104.58,-111.93 -23.28,-27.77 -33.85,-25.24 -56.08,-47.47 -24.07,-24.07 -21.47,-35.62 -52.78,-60.18 -85.09,-66.75 -36.3,-60.69 -114.46,-102.04l-36.2 29.84z"/>
   <path class="fil0" d="M11487.31 12227.62c14.14,-60.69 37.66,-84.57 37.66,-160.02 64.5,43.19 282.8,305.06 338.89,320.04l49.21 -44.93c-36.9,-54.05 -31.37,-45.98 -79.03,-85.27l-158.55 -161.51c-40.02,-30.02 -37.93,-49.71 -79.19,-80.83 -40.97,-30.92 -145.15,-189.13 -147.47,-42.52 -3.5,220.72 -43.1,200.42 38.48,255.04z"/>
   <path class="fil0" d="M2600.75 18327.17l54.31 58.65c14.84,-56.54 39.82,-95.41 39.82,-162.19 64.51,43.19 282.8,305.06 338.9,320.04l49.21 -44.92c-59.52,-83.62 -142.51,-142.88 -211.86,-225.44 -22.71,-27.04 -34.66,-25.7 -55.2,-48.35 -39.3,-43.35 -120.35,-136.07 -168.12,-161.35 -67,44.87 -9.12,72.88 -31.89,194.02 -5.23,27.82 -12.83,41.33 -15.17,69.54z"/>
   <path class="fil0" d="M8126.61 16661.09c0,160.48 -56.45,200.79 37.65,225.91l37.66 -150.61 327.23 322.3 60.9 -56.56 -156.6 -158.39c-26.14,-33.79 -33.1,-26.13 -59.96,-52.99l-104.18 -112.33c-23.21,-29.58 -31.44,-26.38 -55.28,-48.26 -24.55,-22.52 -27.42,-53.78 -59.18,-53.78 -53.51,0 -28.24,45.75 -28.24,84.71z"/>
   <path class="fil0" d="M13435.96 5930.39c0,56.05 13.28,69.62 4.52,126.46 -8.06,52.31 -13.44,75.73 -23.35,118.28l54.72 48.9c20.69,-41.28 39.42,-103.09 39.42,-161.85l336.63 331.7c22.88,-33.05 39.56,-31.56 49.33,-68.14 -23.51,-35.11 -26.07,-24.88 -53.81,-49.75 -24.79,-22.22 -21.38,-32.67 -47.28,-56.26 -26.85,-24.46 -29.85,-15.72 -55.14,-48.41 -49.55,-64.06 -32.9,-25.79 -100.55,-106.53 -23.28,-27.78 -33.85,-25.24 -56.08,-47.47 -22.28,-22.28 -19.62,-32.93 -47.49,-56.06 -28.76,-23.88 -42.99,-18.42 -53.86,-59.1 -33.18,8.86 -20.71,9.92 -47.06,28.23z"/>
   <path class="fil0" d="M6461.83 20936.15c-1.45,103.77 31.11,22.55 -20.28,243.13l54.72 48.9c11.11,-21.33 18.72,-46.25 26.68,-71.05 9.33,-29.06 11.92,-60.07 22.15,-81.39l320.07 310.62c36.58,-9.76 35.1,-26.44 65.89,-47.06l-430.7 -435.32 -38.53 32.17z"/>
   <path class="fil0" d="M19649.02 5403.27c14.14,-60.68 37.66,-84.57 37.66,-160.02 64.5,43.19 282.79,305.06 338.89,320.04l49.21 -44.92c-16.27,-23.24 -26.38,-42.77 -46.73,-61.1 -31,-27.94 -31.36,-17.46 -58.96,-54 -25.96,-34.36 -22.87,-23.72 -53.87,-49.67 -28.65,-23.99 -27.35,-36.77 -51.8,-61.16 -24.5,-24.43 -33.02,-19.8 -55.95,-47.6 -26.35,-31.96 -20.17,-31.84 -54.99,-57.97 -38.04,-28.54 -64.21,-88.13 -122.29,-103.64 -42.87,64.03 -5.62,88.49 -21.05,186.1 -12.96,81.9 -36.23,82.98 39.88,133.94z"/>
   <path class="fil0" d="M3287.95 18769.58l4.3 82.11c-2.26,63.91 -19.97,105.79 -23.13,143.8l54.31 58.65c16.31,-62.86 39.83,-86.75 39.83,-162.19 64.5,43.19 282.8,305.06 338.89,320.04l49.21 -44.93c-35.38,-50.77 -121.32,-136.78 -167.73,-175.43l-115.52 -119.81c-24.92,-31.76 -39.63,-34.01 -64,-58.37 -20.02,-20.03 -27.64,-40.27 -52.78,-61.16 -23.15,-19.24 -63.38,-29.99 -63.38,17.29z"/>
   <path class="fil0" d="M13483.02 8886.04c11.5,-49.32 36.38,-93.03 37.66,-150.6l248.58 240.91c1.37,1.37 3.3,3.38 4.64,4.78l76.26 74.34 58.65 -54.3 -432.87 -437.49c-30.11,43.8 -34.67,17.7 -33.42,61.1 1.03,35.35 5.34,73.47 2.48,110.28 -5.52,71.17 -46.25,128.48 38.02,150.98z"/>
   <path class="fil0" d="M4116.36 16604.61c0,70.24 17.26,63.37 -5.77,163.98 -13.82,60.34 -17.67,92.69 43.42,109 18.1,-37.71 37.66,-94.76 37.66,-150.61 46.01,12.29 47.73,46.45 84.54,75.49l158.63 161.42c20.5,16.9 25.79,14.61 45.98,38.74 20.59,24.61 12.85,25.99 40.33,44.39 30.78,-8.22 40.78,-23.62 56.48,-47.06 -11.2,-41.96 -70.37,-84.48 -101.2,-115.31l-216.51 -216.5c-48.2,-48.19 -82.04,-97.63 -124.74,-101.19 -11.37,16.99 -18.82,16.55 -18.82,37.65z"/>
   <path class="fil0" d="M9501.01 18223.63c14.61,-30.44 34.21,-109.11 37.66,-150.6l327.23 322.29 60.9 -56.56c-20.31,-26.93 -26.96,-20.69 -53.35,-54.53l-212.5 -211.11c-34.07,-25.57 -24,-23.43 -49.58,-53.96 -23.29,-27.79 -33.94,-25.25 -56.07,-47.48 -27.38,-27.48 -16.9,-33.64 -54.29,-58.67 -66.31,17.7 -31.71,43.14 -37.48,160.18 -1.82,37.06 -18.55,73.91 -17.32,94.39 1.82,30.15 26.8,48.58 54.8,56.05z"/>
   <path class="fil0" d="M10104.94 10600.79c40.66,179.11 -66.62,250.82 45.62,280.79 16.13,-33.61 37.66,-101 37.66,-150.61 64.5,43.19 282.79,305.06 338.89,320.04l49.21 -44.93c-43.21,-60.8 -207.19,-217.08 -268.19,-272.65 -27.35,-24.91 -23.81,-36.92 -52.43,-60.52 -94.58,-77.97 -44.33,-64.81 -114.55,-101.96l-36.21 29.84z"/>
   <path class="fil0" d="M20279.74 5789.2c0,55.57 7.35,76.41 0.99,122.71 -5.97,43.46 -16.69,65.61 -19.82,103.2l54.31 58.65c15.99,-61.44 39.83,-77.79 39.83,-162.19 64.51,43.19 282.8,305.06 338.9,320.04l49.2 -44.93c-44.61,-63.75 -103.11,-113.96 -159.51,-164.82 -25.71,-23.19 -23.18,-36.19 -52.34,-60.62 -76.52,-64.1 -38.54,-44.06 -111.93,-104.57 -23.26,-19.17 -62.21,-89.48 -120.8,-105.12 -11.38,16.99 -18.83,16.55 -18.83,37.65z"/>
   <path class="fil0" d="M14604.71 6101.43c1.61,135.71 29.67,28.75 -20.28,243.13l54.72 48.9c23.77,-43.42 39.42,-88.42 39.42,-152.44 40.47,10.81 312.79,295.12 329.48,320.04 24.58,-16.46 46.79,-34.5 65.9,-56.48l-430.71 -435.32 -38.53 32.17z"/>
   <path class="fil0" d="M17766.27 8518.94c0,20.24 37.23,41.92 56.49,47.06 9.17,-39.35 31.69,-78.95 37.65,-150.6 20.54,13.75 21.56,18.22 40.05,35.26l209.99 204.19c21.31,23.61 61.61,57.33 70.03,80.59 32.44,-8.66 49.58,-32.13 65.89,-56.48l-430.7 -435.32c-50.85,34.82 -30.8,46.34 -30.19,124.63 0.59,75.6 -19.21,97 -19.21,150.67z"/>
   <path class="fil0" d="M6443 12925.78c1.61,135.71 29.67,28.75 -20.28,243.13l54.73 48.9c23.76,-43.43 39.41,-88.42 39.41,-152.44 40.47,10.8 312.79,295.12 329.48,320.04 20.64,-13.82 48.98,-38.65 65.9,-56.48l-430.71 -435.32 -38.53 32.17z"/>
   <path class="fil0" d="M6612.45 14092.98c1.61,135.71 29.67,28.75 -20.28,243.13l54.72 48.9c23.77,-43.43 39.42,-88.42 39.42,-152.44 39.27,10.48 60.03,45.89 87.07,72.95 30.53,30.54 54.19,54.18 84.73,84.71 42.95,42.95 123.9,133.45 167.09,162.37l58.66 -54.3 -435.21 -435.17 -36.2 29.85z"/>
   <path class="fil0" d="M4626.72 20098.81c-2.02,121.34 21.16,53.01 -20.85,233.31l54.31 58.65c14.4,-54.65 39.83,-80.15 39.83,-152.78 62.06,16.57 276.6,294 338.89,310.63l49.21 -44.93c-10.48,-33.06 -127.3,-138.4 -157.78,-166.55l-106.72 -109.78c-21.62,-26.21 -33.71,-34.61 -57.63,-55.33 -21.34,-18.48 -27.24,-32.18 -49.14,-54.41 -24.07,-24.43 -36.98,-31.04 -63.9,-49.06l-26.22 30.25z"/>
   <path class="fil0" d="M18935.59 4445.17c25.34,115.38 -6.32,171.92 -11.43,233.31l54.31 58.65c14.84,-56.54 39.83,-95.42 39.83,-162.19 43.19,28.92 124.14,119.42 167.09,162.37 35.1,35.09 132.9,147.28 171.81,157.67l49.2 -44.93c-45.78,-63.94 -143.32,-149.34 -211.9,-225.39 -22.31,-24.74 -32.72,-21.4 -56.28,-47.26 -39.05,-42.85 -125.99,-149.02 -176.4,-162.48l-26.23 30.25z"/>
   <path class="fil0" d="M6941.93 12426.89c11.43,153.21 20.67,67.38 -20.28,243.14l54.72 48.9c23.77,-43.43 39.42,-88.42 39.42,-152.45 38.18,10.2 133.13,119.01 167.09,152.96 42.95,42.95 133.47,123.9 162.39,167.08 20.64,-13.82 48.98,-38.64 65.89,-56.48l-430.7 -435.32 -38.53 32.17z"/>
   <path class="fil0" d="M7280.82 14761.29c4.45,69.29 24.76,149.29 -20.28,243.13 30.8,20.62 29.32,37.3 65.9,47.07 11.82,-50.73 28.24,-87.87 28.24,-150.61 53.49,14.28 275.07,277.3 338.9,320.04l58.65 -54.31 -108.5 -112.35c-35.56,-29.07 -23.46,-14.26 -52.4,-51.14 -23.4,-29.83 -34.7,-31.74 -59.11,-53.85 -20.96,-18.97 -23.9,-33.43 -47.88,-55.67l-167.31 -162.15 -36.21 29.84z"/>
   <path class="fil0" d="M3956.32 19437.9c0,58.92 11.52,101.36 -5.99,172.84 -9.93,40.53 -38.48,54.55 43.65,109.54 13.81,-59.27 37.65,-75.61 37.65,-160.02 43.19,28.92 124.15,119.43 167.1,162.37 35.09,35.1 132.89,147.28 171.8,157.67l49.21 -44.92c-33.88,-60.57 -118.7,-125.09 -168.39,-174.77l-113.79 -121.55c-25.03,-28.86 -41.52,-30.47 -64.41,-57.96 -13.11,-15.73 -116.83,-131.58 -116.83,-43.2z"/>
   <path class="fil0" d="M17598.84 3108.54c15.63,73.72 11.67,165.57 -20.84,233.31 30.79,20.62 29.31,37.3 65.9,47.06 11.48,-49.3 36.13,-82.42 37.65,-150.6 64.51,43.19 282.8,305.06 338.9,320.04 15.36,-11.26 35.93,-39.86 47.06,-56.48l-325.39 -324.13c-42.66,-35.53 -69.11,-86.65 -117.05,-99.45l-26.23 30.25z"/>
   <path class="fil0" d="M7450.27 15928.49c4.7,72.34 25.63,147.47 -20.28,243.13 30.8,20.62 29.31,37.3 65.9,47.07 6.76,-29.01 28.08,-130.67 37.65,-150.61l327.23 322.29 60.91 -56.56c-4.33,-4.44 -10.43,-10.06 -11.85,-11.32l-423.36 -423.84 -36.2 29.84z"/>
   <path class="fil0" d="M2958.47 20445.07c0,58.23 8.05,61.88 0.99,113.3 -5.98,43.46 -16.69,65.61 -19.82,103.2l54.31 58.65c15.98,-61.44 39.83,-77.79 39.83,-162.19l336.64 331.71 51.16 -56.98c-18.34,-26.88 -401.06,-423.21 -444.29,-434.75 -10.67,39.96 -18.82,16.47 -18.82,47.06z"/>
   <path class="fil0" d="M20948.12 6457.52c0,62.67 11.53,59.47 3.29,115.6 -7.4,50.5 -12.59,69.38 -22.12,110.31l54.31 58.65c14.4,-54.65 39.83,-80.15 39.83,-152.78 53.49,14.28 275.06,277.3 338.89,320.04l47.07 -52.66 0 -5.23c-28.13,-46.93 -115.93,-123.91 -157.37,-161.27 -25.72,-23.19 -23.19,-36.2 -52.34,-60.62 -86.27,-72.27 -144.47,-156.9 -223.32,-209.7 -7.03,10.5 -28.24,31.67 -28.24,37.66z"/>
   <path class="fil0" d="M6460.38 17009.37c0,102.4 -68.11,198.28 37.65,207.08 1.16,-13.87 33.33,-141.58 37.66,-150.6l327.23 322.29 56.97 -51.16c-30.37,-46.07 -301.17,-303.35 -381.77,-386.52 -24.83,-25.62 -28.72,-41.34 -68.33,-44.63 -39.22,58.56 -9.41,37.84 -9.41,103.54z"/>
   <path class="fil0" d="M9436.57 9932.48c16.19,74.13 12.23,165.97 -20.28,233.72 30.79,20.62 29.31,37.29 65.9,47.06 11.48,-49.3 36.13,-82.42 37.65,-150.61 64.51,43.2 282.8,305.07 338.9,320.04 15.36,-11.25 35.93,-39.85 47.06,-56.47l-265.96 -261.19c-26.55,-23.03 -30.76,-40.25 -52.77,-60.18 -64.38,-58.28 -72.83,-80.27 -114.3,-102.21l-36.2 29.84z"/>
   <path class="fil0" d="M14622.09 10185.02c0,53.1 -10.59,88.47 -19.48,132.18 -8.77,43.12 8.02,70.82 57.13,74.91 1.16,-13.88 33.33,-141.59 37.66,-150.61l327.22 322.29 56.98 -51.15c-27.61,-41.88 -257.66,-262.27 -325.37,-329.97 -48.2,-48.2 -82.03,-97.64 -124.73,-101.19 -39.22,58.57 -9.41,37.84 -9.41,103.54z"/>
   <path class="fil0" d="M10498.87 17225.87c15.64,-32.59 36.61,-103.82 37.65,-150.61 77.76,52.06 166.58,167.74 244.69,235.39 31.33,27.15 47.46,59.65 84.8,84.65l58.65 -54.31 -432.88 -437.49c-31.81,46.35 -37.93,17.02 -32.74,69.41 17.81,179.49 -59.15,226.53 39.83,252.96z"/>
   <path class="fil0" d="M16600.42 4105.9c40.41,178.04 -45.87,201.89 2.17,257.46 22.5,26.02 4.21,20.05 43.45,23.32 9.17,-39.35 31.69,-78.96 37.65,-150.61l251.82 247.09c28.24,28.25 48.6,68.97 96.49,72.95 9.5,-35.56 18.17,-27.38 37.66,-56.48l-430.76 -425.85 -38.48 32.12z"/>
   <path class="fil0" d="M7128.75 17677.68c0,115.34 -66.9,198.39 37.66,207.09 1.15,-13.88 33.32,-141.59 37.65,-150.61l327.23 322.29 56.98 -51.15c-30.38,-46.07 -301.18,-303.35 -381.78,-386.52 -24.83,-25.62 -28.71,-41.34 -68.32,-44.64 -36.63,54.69 -9.42,30.94 -9.42,103.54z"/>
   <path class="fil0" d="M8947.06 14431.84c42.18,185.68 -72.05,258.78 45.61,290.2l37.66 -150.61c81.16,54.34 94.46,92.23 119.91,115.42 22.34,20.35 25.89,14.59 46.87,37.85 41.06,45.5 117.5,136.5 162.7,166.77l58.65 -54.31 -432.87 -437.49 -38.53 32.17z"/>
   <path class="fil0" d="M18764.13 7521.17c0,27.57 24.42,-2.48 37.66,47.07l18.82 0c9.42,-40.4 36.33,-91 37.66,-150.61 53.49,14.28 275.06,277.3 338.89,320.04l48.91 -54.72c-36.77,-53.92 -162.86,-167.47 -216,-220.61 -40.07,-40.06 -188.91,-203.63 -228.28,-214.14 -20.69,77.47 -19.83,-28.15 -18.46,122.3 0.69,75.68 -19.2,96.87 -19.2,150.67z"/>
   <path class="fil0" d="M13624.23 11192.2c0,45.13 -19.15,111.58 -28.24,150.61 15.7,23.44 25.7,38.84 56.48,47.06 22.01,-41.59 37.66,-86.58 37.66,-150.6 38.77,10.35 134.49,128.1 163.23,156.82 15.65,15.64 23.29,16.31 41.79,33.51 20.2,18.76 23.45,29.8 38.41,46.32 27.34,30.19 64.36,37.41 76.63,83.38 38.95,-3.24 48.48,-21.05 65.9,-47.06 -11.21,-41.96 -70.37,-84.48 -101.2,-115.31l-216.51 -216.49c-48.2,-48.2 -82.04,-97.64 -124.74,-101.19 -39.85,59.5 -9.41,47.55 -9.41,112.95z"/>
   <path class="fil0" d="M5445.71 13923.96c-2.02,54.02 11.27,67.6 2.51,124.43 -8.06,52.31 -13.44,75.74 -23.35,118.29l54.72 48.9c17.88,-35.44 39.41,-102.83 39.41,-152.45 39.28,10.49 60.03,45.9 87.08,72.95 43.23,43.25 220.44,236.2 261.23,247.09 7.69,-21.24 3.18,-7.37 15.52,-22.14 10.41,-12.45 10.06,-6.88 22.14,-24.92 -11.71,-43.86 -408.43,-425.93 -433.04,-442.41l-26.22 30.26z"/>
   <path class="fil0" d="M11157.83 13893.7c12.23,-52.47 37.66,-77.98 37.66,-150.6 53.49,14.28 275.06,277.3 338.89,320.03l48.91 -54.71c-18.34,-26.89 -401.06,-423.22 -444.29,-434.76 -15.3,57.3 -27.91,1 -19.74,75.47 19.99,182.24 -67.52,173.54 38.57,244.57z"/>
   <path class="fil0" d="M5963.47 21435.45c-2.02,111.36 31.21,9.85 -20.85,233.3l54.31 58.65c20.27,-39.88 39.83,-96.93 39.83,-152.78 53.49,14.28 275.07,277.3 338.89,320.04 20.62,-30.79 37.3,-29.31 47.07,-65.89l-399.98 -400.15c-36.12,-29.14 4.35,-9.9 -33.05,-23.43l-26.22 30.26z"/>
   <path class="fil0" d="M15442.53 7936.94c4.45,69.29 24.76,149.29 -20.28,243.14 30.8,20.61 29.32,37.29 65.9,47.06 11.82,-50.73 28.24,-87.87 28.24,-150.61 53.49,14.29 275.07,277.31 338.9,320.04l58.65 -54.3c-25.6,-37.16 -30.05,-27.29 -55.44,-52.46l-105.46 -111.04c-23.4,-29.82 -34.7,-31.74 -59.12,-53.84l-158.61 -161.44c-27.34,-23.72 -23.36,-34.15 -56.57,-56.39l-36.21 29.84z"/>
   <path class="fil0" d="M12108.62 8613.07c0,68.65 10.4,99.36 -7.69,171.74 -14.09,56.37 -10.04,86.44 45.34,101.23 16.13,-33.6 37.66,-100.99 37.66,-150.6 53.49,14.28 275.07,277.3 338.89,320.03l49.21 -44.92c-13.34,-44.1 -72.5,-86.62 -103.34,-117.45 -38.38,-38.38 -69.87,-69.87 -108.25,-108.25 -54.07,-54.06 -170.6,-183.37 -223.58,-218.85 -12.99,19.4 -28.24,24.44 -28.24,47.07z"/>
   <path class="fil0" d="M4615.28 16096.32c0,77.78 13.16,80.37 -4.05,165.51 -12.73,62.98 -25.29,98.99 41.71,116.88 18.09,-37.71 37.65,-94.76 37.65,-150.61 53.5,14.28 275.07,277.3 338.9,320.04l49.21 -44.93c-13.35,-44.1 -72.51,-86.62 -103.34,-117.45 -68.54,-68.53 -288.32,-297.96 -331.83,-327.09 -7.03,10.49 -28.25,31.66 -28.25,37.65z"/>
   <path class="fil0" d="M4445.84 14938.53c0,67.35 9.82,60.24 0.88,122.82 -6.46,45.25 -18.78,70.62 -19.71,112.5 24.73,16.56 26.35,21.71 56.48,37.66 16.13,-33.61 37.66,-101 37.66,-150.61 39.27,10.49 60.03,45.89 87.07,72.95l251.82 247.09 47.07 -47.07c-11.71,-43.85 -408.43,-425.93 -433.03,-442.4 -12.99,19.39 -28.24,24.43 -28.24,47.06z"/>
   <path class="fil0" d="M14105.78 6600.31c-1.45,110.65 32.2,17.9 -20.28,243.14l54.73 48.9c19.83,-35.99 39.41,-100.29 39.41,-152.45 40.47,10.81 312.79,295.12 329.48,320.04 97.61,-65.36 58.71,-60.65 7.28,-110.82 -22.22,-21.67 -19.73,-32.69 -47.54,-56 -30.54,-25.58 -28.41,-15.51 -53.97,-49.58 -26.12,-34.81 -26.01,-28.64 -57.97,-54.99 -27.85,-22.96 -23.14,-31.46 -47.61,-55.94 -26.86,-26.86 -33.82,-19.19 -59.97,-52.99l-107.35 -109.15 -36.21 29.84z"/>
   <path class="fil0" d="M15789.39 10335.63c0,66.41 -1.56,123.25 -28.24,178.84 30.79,20.62 29.31,37.3 65.89,47.07l37.66 -150.61 327.23 322.29 56.97 -51.15c-27.61,-41.88 -257.66,-262.27 -325.36,-329.97 -48.2,-48.19 -82.04,-97.63 -124.74,-101.19 -36.7,54.8 -9.41,18.08 -9.41,84.72z"/>
   <path class="fil0" d="M15121.01 9686.14c0,58.63 -9.52,121.02 -28.24,160.02 30.8,20.62 29.32,37.29 65.9,47.06 1.15,-13.87 33.32,-141.58 37.65,-150.6l327.23 322.29 56.98 -51.16c-30.38,-46.07 -301.18,-303.35 -381.78,-386.52 -24.83,-25.62 -28.71,-41.34 -68.32,-44.63 -36.62,54.68 -9.42,30.94 -9.42,103.54z"/>
   <path class="fil0" d="M13106.47 7605.89c0,79.57 12.98,79.54 -2.7,166.99 -14.77,82.41 -30.31,68.08 40.36,115.4 16.13,-33.61 37.65,-101 37.65,-150.61 38.3,10.22 137.73,123.59 171.81,157.67 42.95,42.94 123.9,133.45 167.09,162.37l47.07 -47.07c-11.21,-41.96 -70.37,-84.48 -101.2,-115.3 -68.54,-68.54 -288.32,-297.97 -331.83,-327.1 -7.03,10.49 -28.25,31.66 -28.25,37.65z"/>
   <path class="fil0" d="M4125.77 20605.09c0,123.1 20.98,55.08 -18.83,225.91l54.31 58.65c14.4,-54.64 39.83,-80.15 39.83,-152.78 53.49,14.29 275.07,277.31 338.9,320.04l48.9 -54.72c-38.46,-55.55 -109.81,-117.39 -159.8,-163.85 -26.35,-24.49 -26.24,-37.67 -53,-59.96 -65.73,-54.74 -45,-47.37 -111.48,-105.02 -34.89,-30.26 -30.05,-51.99 -110.59,-105.92 -7.02,10.49 -28.24,31.66 -28.24,37.65z"/>
   <path class="fil0" d="M14934.19 4435.35c10.66,143.87 23.15,56.74 -20.28,243.13l54.72 48.9c23.77,-43.43 39.42,-88.42 39.42,-152.44 38.77,10.35 171.5,150.67 207.31,188.05l122.17 122.57c36.58,-9.76 35.1,-26.44 65.9,-47.06l-430.71 -435.32 -38.53 32.17z"/>
   <path class="fil0" d="M12287.48 13780.75c0,123.1 20.98,55.07 -18.83,225.91l54.31 58.65c14.4,-54.65 39.83,-80.15 39.83,-152.78 53.49,14.28 275.07,277.3 338.89,320.04l48.91 -54.72c-27.75,-40.46 -396.01,-408.74 -434.87,-434.75 -7.02,10.49 -28.24,31.66 -28.24,37.65z"/>
   <path class="fil0" d="M10997.8 16726.98c16.12,-33.6 37.65,-100.99 37.65,-150.6 45.45,12.13 12.12,4.86 41.26,34.05 17.43,17.46 26.6,18.94 46.18,38.53 19.87,19.87 21.35,29.79 38.14,46.58l126.52 118.23c44.75,41.59 4.96,27.85 86.8,82.64l48.9 -54.71 -432.54 -437.08c-30.58,44.51 -39.13,19.18 -32.57,69.05 7.78,59.2 12.28,36.87 4.07,94.71 -10.75,75.71 -46.96,136.56 35.59,158.6z"/>
   <path class="fil0" d="M9445.98 13932.96c42.19,185.67 -72.04,258.78 45.62,290.19 12.01,-51.53 36.25,-96.93 37.66,-160.02l336.63 331.71 51.16 -56.97 -432.54 -437.08 -38.53 32.17z"/>
   <path class="fil0" d="M13426.54 10175.61c15.7,23.44 25.7,38.85 56.48,47.06 19.27,-36.4 37.66,-94.09 37.66,-150.6 53.49,14.28 275.07,277.3 338.89,320.04l49.21 -44.93c-13.34,-44.1 -72.5,-86.62 -103.34,-117.45l-272.92 -273.05c-24.83,-25.61 -28.71,-41.34 -68.32,-44.63 -39.13,58.42 9.67,60.43 -37.66,263.56z"/>
   <path class="fil0" d="M17438.25 5941.41c27.77,123.83 -10.87,178.84 -10.87,252.55 40.88,14.79 11.9,25.75 56.48,37.65 12.01,-51.53 36.25,-96.94 37.66,-160.02l336.64 331.71 51.16 -56.98 -432.54 -437.08 -38.53 32.17z"/>
   <path class="fil0" d="M9276.54 12765.76c27.77,123.83 -10.87,178.83 -10.87,252.54 40.88,14.8 11.9,25.75 56.48,37.65 12.01,-51.53 36.25,-96.93 37.66,-160.02l336.64 331.71 51.16 -56.97 -432.54 -437.08 -38.53 32.17z"/>
   <path class="fil0" d="M16939.32 6440.29c42.18,185.68 -72.05,258.79 45.61,290.2 12.01,-51.54 32.76,-101.19 37.66,-160.02l336.64 331.71 51.16 -56.98 -432.54 -437.08 -38.53 32.17z"/>
   <path class="fil0" d="M12957.87 14441.67c-2.01,110.75 30.14,14.49 -20.84,233.3l54.31 58.65c14.4,-54.64 39.82,-80.15 39.82,-152.78 53.5,14.28 275.07,277.3 338.9,320.04l48.9 -54.72c-45.29,-65.89 -251.27,-255.64 -324.58,-328.52 -30.22,-30.04 -42.45,-60.81 -110.28,-106.23l-26.23 30.26z"/>
   <path class="fil0" d="M8438.71 10930.24c40.41,178.05 -45.87,201.89 2.18,257.46 22.49,26.02 4.2,20.06 43.44,23.33 9.17,-39.35 31.69,-78.96 37.66,-150.61 93.74,62.77 284.19,314.7 348.3,320.04 9.5,-35.57 18.17,-27.38 37.66,-56.48l-430.76 -425.86 -38.48 32.12z"/>
   <path class="fil0" d="M18106.62 6609.73c41.75,183.79 -50.44,209.6 11.25,268.08 25.79,24.44 2.56,13.62 34.37,22.11 12.67,-54.37 37.65,-93.24 37.65,-160.02l336.64 331.71 51.16 -56.97 -432.54 -437.08 -38.53 32.17z"/>
   <path class="fil0" d="M1783.2 20258.42c27.78,123.83 -10.86,178.84 -10.86,252.54 30.91,8.26 21.91,19.37 56.48,37.66 12.67,-54.37 37.65,-93.25 37.65,-160.02l336.64 331.71 51.16 -56.98 -432.54 -437.08 -38.53 32.17z"/>
   <path class="fil0" d="M8937.64 10431.36c16.2,74.13 12.23,165.98 -20.28,233.72 30.8,20.62 29.31,37.3 65.9,47.06 9.41,-40.4 36.33,-91 37.65,-150.6 93.75,62.76 284.2,314.7 348.31,320.04 9.5,-35.57 18.17,-27.38 37.66,-56.48l-430.76 -425.86 -38.48 32.12z"/>
   <path class="fil0" d="M14424.4 7841.21c0,20.25 37.23,41.93 56.48,47.07 14.82,-30.88 37.66,-114.04 37.66,-160.02l336.63 331.71 51.17 -56.98 -432.55 -437.08c-34.31,49.35 -31.93,12.81 -30.47,134.2 1.45,120.03 -18.92,92.29 -18.92,141.1z"/>
   <path class="fil0" d="M17937.17 4105.9c10.39,140.64 21.59,63.44 -20.28,243.13l54.73 48.9c22.6,-41.22 44.23,-106.65 48.83,-161.86l327.22 322.3 56.98 -51.16 -428.95 -433.48 -38.53 32.17z"/>
   <path class="fil0" d="M10443.84 11598.56c10.65,143.87 23.15,56.74 -20.28,243.13l54.72 48.9c22.6,-41.22 44.24,-106.65 48.83,-161.85l327.23 322.29 56.97 -51.16 -428.94 -433.48 -38.53 32.17z"/>
   <path class="fil0" d="M5264.83 16999.96c15.7,23.44 25.7,38.84 56.49,47.06 19.26,-36.41 37.65,-94.1 37.65,-150.61 39.28,10.49 60.03,45.9 87.08,72.95l251.81 247.09 49.21 -44.92c-13.34,-44.1 -72.5,-86.62 -103.33,-117.45 -38.39,-38.38 -69.88,-69.87 -108.26,-108.25 -38.39,-38.38 -69.88,-69.87 -108.26,-108.25 -48.2,-48.19 -82.03,-97.63 -124.73,-101.19 -39.13,58.43 9.67,60.43 -37.66,263.57z"/>
   <path class="fil0" d="M10443.84 12935.19c25.9,115.79 -5.76,172.33 -10.87,233.72l54.31 58.65c14.84,-56.54 39.83,-95.42 39.83,-162.19l336.64 331.71 51.16 -56.98 -432.54 -437.08 -38.53 32.17z"/>
   <path class="fil0" d="M18265.2 8020.06c0,20.24 37.23,41.92 56.48,47.06 9.42,-40.4 36.33,-91 37.66,-150.61 53.49,14.29 275.07,277.31 338.89,320.04l48.91 -54.71 -432.54 -437.09c-49.39,38.22 -30.9,45.25 -30.2,124.63 0.67,75.67 -19.2,96.91 -19.2,150.68z"/>
   <path class="fil0" d="M13456.8 13942.78c-2.02,110.76 30.14,14.49 -20.84,233.31l54.31 58.65c18.29,-35.78 39.82,-103.17 39.82,-152.78 53.49,14.28 275.07,277.3 338.9,320.04 20.62,-30.79 37.3,-29.31 47.07,-65.89 -21.36,-31.89 -51.41,-48.54 -101.18,-105.92 -21.64,-24.95 -35.97,-28.2 -55.66,-47.89l-276.2 -269.77 -26.22 30.25z"/>
   <path class="fil0" d="M7440.86 11928.01c11.43,153.21 20.67,67.38 -20.28,243.13l54.72 48.9c15.15,-27.13 22.53,-44.94 30.38,-76.76 6.76,-27.44 7.53,-62.35 18.45,-85.09l327.23 322.29 56.97 -51.16 -428.94 -433.48 -38.53 32.17z"/>
   <path class="fil0" d="M7789.17 18272.3c10.44,141.29 19.31,39.26 -12.4,213.59 -1.77,9.72 -7.24,16.91 9.09,39.95 16.31,23.03 15.41,24.45 48.92,27.24 6.73,-28.86 13.67,-41.55 20.99,-73.14 5.5,-23.73 5.85,-54.93 16.67,-77.46l327.23 322.29 56.97 -51.16 -428.94 -433.48 -38.53 32.17z"/>
   <path class="fil0" d="M945.38 18422.91c37.91,167.34 -40.87,203.13 8.2,261.26 15.19,17.99 16.28,17.75 37.42,28.93 12,-51.53 36.25,-96.93 37.65,-160.02l247.11 242.39c28.12,28.12 51.08,66.78 91.79,77.65l49.2 -44.92 -432.84 -437.46 -38.53 32.17z"/>
   <path class="fil0" d="M14942.15 7107.01c0,77.74 14.49,81.76 -2.77,166.92 -4.43,21.84 -43.22,85.19 40.43,115.46 17.23,-35.9 37.65,-106.88 37.65,-160.02l336.64 331.71 51.16 -56.97 -432.54 -437.08c-9.35,12.82 -30.57,33.99 -30.57,39.98z"/>
   <path class="fil0" d="M15433.12 3936.47c11.43,153.2 20.67,67.37 -20.28,243.13 33.43,22.38 20.54,33.87 65.9,37.65l37.65 -150.61 327.23 322.3 56.97 -51.16 -428.94 -433.49 -38.53 32.18z"/>
   <path class="fil0" d="M19104.48 5611.96c25.9,115.79 -5.76,172.33 -10.87,233.72l54.31 58.65c14.84,-56.54 39.83,-95.42 39.83,-162.19l247.11 242.38c28.12,28.12 51.08,66.79 91.78,77.66l49.21 -44.93 -432.84 -437.46 -38.53 32.17z"/>
   <path class="fil0" d="M2112.68 18592.34c25.9,115.79 -5.75,172.33 -10.86,233.72l54.31 58.65c14.84,-56.55 39.82,-95.42 39.82,-162.19l247.12 242.38c28.12,28.12 51.08,66.79 91.78,77.65l49.21 -44.92 -432.85 -437.46 -38.53 32.17z"/>
   <path class="fil0" d="M8608.16 12097.44c26.83,119.78 -10.99,183.87 -8.98,224.52 1.07,21.48 1.39,11.71 4.9,20.51 0.78,1.95 2.12,4.4 3.07,6.27 16.84,32.95 25.37,33.22 46.63,38.9 12.01,-51.54 32.76,-101.19 37.65,-160.02 64.51,43.19 282.8,305.06 338.9,320.04l49.21 -44.93 -432.85 -437.46 -38.53 32.17z"/>
   <path class="fil0" d="M10602.42 14354.93c35.57,9.5 27.38,18.17 56.48,37.65 9.42,-40.4 36.33,-91 37.66,-150.6 53.49,14.28 275.07,277.3 338.89,320.04l48.91 -54.72 -432.54 -437.08c-15.16,11.72 -10.85,6.6 -22.04,20.88 -21.22,27.1 -8.72,40.54 -8.16,103.74 0.7,79.43 -19.2,95.95 -19.2,160.09z"/>
   <path class="fil0" d="M6791.31 19270.07c17.6,120.93 12.85,100.94 -20.28,243.13l54.72 48.9c32.06,-61.79 34.95,-132.92 48.83,-161.86l327.23 322.3 56.98 -51.16 -428.95 -433.48 -38.53 32.17z"/>
   <path class="fil0" d="M19432.51 8180.08c0,24.37 22.77,33.9 56.48,56.47 12.22,-52.47 37.65,-77.97 37.65,-150.6 38.3,10.22 137.73,123.59 171.8,157.66 42.95,42.95 123.91,133.46 167.1,162.38l48.9 -54.72 -432.54 -437.08c-11.26,15.67 -12.08,13.22 -19.97,22.96 -15.65,19.31 -11.2,3.31 -13.97,25.17 -5.19,40.84 18.67,27.83 2.06,141.02 -4.55,31.03 -17.51,46.81 -17.51,76.74z"/>
   <path class="fil0" d="M11477.9 8217.73c12.22,-52.48 37.65,-77.98 37.65,-150.61 53.49,14.28 275.07,277.3 338.9,320.04l48.9 -54.72 -432.54 -437.08c-66.13,96.23 -20.83,-22.33 -30.39,171.93 -1.83,37.05 -18.56,73.9 -17.32,94.38 1.82,30.15 26.8,48.58 54.8,56.06z"/>
   <path class="fil0" d="M18933.58 8678.96c0,30.03 31.41,49.78 56.48,56.48 12.23,-52.48 37.65,-77.98 37.65,-150.61 53.5,14.28 275.07,277.3 338.9,320.04l48.9 -54.72 -432.54 -437.08c-53.41,78.61 -30.35,2.15 -27.52,116.42 2.32,93.9 -21.87,113.18 -21.87,149.47z"/>
   <path class="fil0" d="M10942.77 12436.31c25.9,115.79 -5.76,172.33 -10.87,233.72l54.31 58.65c14.84,-56.55 39.83,-95.42 39.83,-162.2 64.5,43.19 282.8,305.06 338.89,320.04l49.21 -44.92 -432.84 -437.46 -38.53 32.17z"/>
   <path class="fil0" d="M15451.95 11946.84c6.05,88.55 22.08,70.36 -10.42,206.98 -5.86,24.62 -11.44,24.86 5.71,47.95 14.52,19.56 21.23,23.43 50.32,25.85 6.76,-29.01 28.09,-130.67 37.66,-150.61l327.23 322.3 56.97 -51.16 -428.94 -433.48 -38.53 32.17z"/>
   <path class="fil0" d="M11451.75 15947.8c36.96,79.3 -9.99,174.75 -11.51,242.65 12.58,8.42 14.92,11.06 27.3,19.76 24.97,17.55 -3.87,5.93 29.19,17.89 16.12,-33.61 37.65,-101 37.65,-150.61 53.49,14.28 275.07,277.3 338.9,320.04l48.9 -54.72 -432.54 -437.08 -37.89 42.07z"/>
   <path class="fil0" d="M1613.75 19091.22c25.91,115.79 -5.75,172.33 -10.86,233.72l54.31 58.65c14.18,-53.7 38.42,-99.1 39.83,-162.19 64.5,43.19 282.79,305.06 338.89,320.04l49.21 -44.93 -432.84 -437.46 -38.54 32.17z"/>
   <path class="fil0" d="M12438.1 6946.99c0,81.82 11.14,25.14 0.34,122.27 -5.33,48.01 -18.18,68.81 -19.17,113.05 19.02,12.73 37.47,24.92 56.48,37.65 16.13,-33.6 37.66,-100.99 37.66,-150.61 53.49,14.29 275.07,277.31 338.89,320.04l48.91 -54.71 -432.54 -437.09c-15.32,21.73 -30.57,26.77 -30.57,49.4z"/>
   <path class="fil0" d="M19780.81 6269.26c0,57.8 5.68,85.32 2.09,123.84 -5.2,55.74 -17.32,77.71 -20.91,120.89l54.31 58.65c14.39,-54.64 39.82,-80.15 39.82,-152.78 53.49,14.29 275.07,277.31 338.9,320.04l48.9 -54.71 -432.54 -437.08c-17.16,23.68 -4.1,13.32 -30.57,21.15z"/>
   <path class="fil0" d="M3796.29 22271.18c0,66.6 11.34,59.93 1.97,123.89 -7.02,47.82 -19.88,79.71 -20.8,120.84 35.57,9.5 27.38,18.17 56.48,37.65 16.13,-33.6 37.66,-100.99 37.66,-150.6 53.49,14.28 275.07,277.3 338.89,320.03l48.91 -54.71 -432.54 -437.08c-9.35,12.82 -30.57,33.99 -30.57,39.98z"/>
   <path class="fil0" d="M11270.8 15004.42c0,24.38 22.77,33.91 56.48,56.48 12.22,-52.47 37.65,-77.98 37.65,-150.61 53.49,14.29 275.07,277.3 338.9,320.04l48.9 -54.72 -432.54 -437.08c-56.63,78.79 -28.62,9.81 -24.93,116.22 2.23,64.01 -24.46,123.57 -24.46,149.67z"/>
   <path class="fil0" d="M3120.59 21604.95c21.65,47.38 11.42,132.78 -0.95,177.89 -8.9,32.47 -10.55,20.25 -10.55,64.76 35.57,9.49 27.38,18.16 56.48,37.65 12.23,-52.48 37.65,-77.98 37.65,-150.61 53.5,14.28 275.07,277.3 338.9,320.04l48.9 -54.72 -432.54 -437.08 -37.89 42.07z"/>
   <path class="fil0" d="M9775.46 12266.88c25.9,115.78 -5.75,172.33 -10.86,233.71l54.31 58.65c14.84,-56.54 39.83,-95.41 39.83,-162.19 43.19,28.92 124.14,119.43 167.09,162.37 35.09,35.09 132.9,147.28 171.8,157.67l49.21 -44.93 -432.84 -437.46 -38.54 32.18z"/>
   <path class="fil0" d="M8457.54 18940.62c37.31,164.75 -43.43,207.85 7.25,262.66 25.31,27.37 -9.32,14.15 38.37,18.12 11.1,-47.64 25.57,-98.73 37.65,-150.61l327.23 322.3 56.98 -51.16 -428.95 -433.48 -38.53 32.17z"/>
   <path class="fil0" d="M16449.8 10949.07c40.57,178.74 -71.08,249.62 45.62,280.78 11.1,-47.63 25.57,-98.73 37.65,-150.6l327.23 322.29 56.98 -51.16 -428.95 -433.48 -38.53 32.17z"/>
   <path class="fil0" d="M6283.53 15759.47c-2.01,110.23 31.64,17.49 -20.84,242.72 30.79,20.62 29.31,37.3 65.89,47.06 4.75,-56.98 28.25,-74.42 28.25,-150.6 53.49,14.28 275.06,277.3 338.89,320.04l54.72 -48.91 -438.35 -442.89 -28.56 32.58z"/>
   <path class="fil0" d="M14445.24 8935.12c-2.01,110.23 31.64,17.49 -20.84,242.72 30.79,20.62 29.31,37.3 65.89,47.07 4.75,-56.98 28.25,-74.43 28.25,-150.61 53.49,14.28 275.06,277.3 338.89,320.04l54.72 -48.9 -438.35 -442.9 -28.56 32.58z"/>
   <path class="fil0" d="M12456.93 14947.95c0,123.1 20.97,55.07 -18.83,225.9l54.31 58.65c18.3,-35.77 39.83,-103.16 39.83,-152.77 53.49,14.28 275.06,277.3 338.89,320.03l48.91 -54.71 -432.54 -437.08c-9.36,12.82 -30.57,33.99 -30.57,39.98z"/>
   <path class="fil0" d="M16929.9 2439.82c16.2,74.12 12.23,165.97 -20.28,233.71 30.8,20.62 29.32,37.3 65.9,47.07 6.8,-29.16 13.18,-34.79 22.87,-71.26 7.82,-29.41 14.09,-47.93 14.79,-79.35l327.22 322.3 56.98 -51.16 -431.27 -431.16 -36.21 29.85z"/>
   <path class="fil0" d="M4965.61 22433.21c-2.02,110.76 30.14,14.49 -20.84,233.31l54.31 58.65c20.26,-39.88 39.82,-96.93 39.82,-152.78 39.28,10.48 60.03,45.89 87.08,72.95l251.82 247.09 48.9 -54.72 -432.54 -437.08 -28.55 32.58z"/>
  </g>
 </g>
</svg>
