<?xml version="1.0" encoding="UTF-8"?>
<!DOCTYPE svg PUBLIC "-//W3C//DTD SVG 1.1//EN" "http://www.w3.org/Graphics/SVG/1.1/DTD/svg11.dtd">
<!-- Creator: CorelDRAW 2018 (64 Bit Versión de evaluación) -->
<svg xmlns="http://www.w3.org/2000/svg" xml:space="preserve" width="215.9mm" height="279.4mm" version="1.1" style="shape-rendering:geometricPrecision; text-rendering:geometricPrecision; image-rendering:optimizeQuality; fill-rule:evenodd; clip-rule:evenodd"
viewBox="0 0 21590 27940"
 xmlns:xlink="http://www.w3.org/1999/xlink">
 <defs>
  <style type="text/css">
   <![CDATA[
    .fil0 {fill:#90D8F7}
    .fil1 {fill:#91D7F7}
    .fil2 {fill:#91D8F6}
   ]]>
  </style>
 </defs>
 <g id="Capa_x0020_1">
  <metadata id="CorelCorpID_0Corel-Layer"/>
  <g id="_2229793921376">
   <path class="fil0" d="M2858.06 7707.96c47.9,-12.81 172.1,-155.46 215.12,-198.51l525.25 -525.61c23.63,-23.64 97.79,-81.18 97.79,-114.63l0.26 -1353.44c0.29,-71.57 -11.09,-91.26 -11.89,-155.85l4.58 -498.39c2.39,-34.49 -4.33,-96.24 -4.16,-150.65l0.03 -4014.83 -153.61 -148.23c-19.75,-18.64 -31.11,-31 -50.34,-50.27 -52.18,-52.28 -163.29,-151.68 -198.37,-204.1 -56.79,38.06 -287.03,284.19 -371.67,366.17 -73.37,71.06 -53.2,59.26 -53,192.99l1.69 546.41c2.38,40.61 2.73,14.46 0.78,49.95l-2.46 365.41c0,1634.94 8.3,3287.95 -0.08,4920.71l0.08 972.87z"/>
   <path class="fil1" d="M6188.34 6735.01c0,-201.3 -0.05,-402.6 0,-603.89 0.06,-173.71 27.19,-148.86 -78.26,-223.63l-1896.61 -1423.5c-60.67,-45.57 -112.77,-84.62 -172.43,-129.4 -30,-22.52 -51.29,-38.47 -83.01,-62.32 -28.78,-21.64 -61.56,-53.59 -94.18,-62.31 0,201.3 0.06,402.6 0,603.9 -0.06,206.24 -49.67,130.3 249.04,354.68 118.15,88.74 227.74,170.85 344.87,258.78 295.11,221.54 1683.5,1275.11 1730.58,1287.69z"/>
   <path class="fil1" d="M477.68 2339.99l2212.74 0 0 -827.56 -1374.58 0c-30.08,0 -3.52,-11.14 -56.89,43.72l-781.27 783.84z"/>
   <path class="fil2" d="M868.82 6880.39l560.09 278.27c27.49,13.29 24.84,13.14 51.78,26.47l293.34 142.59c152.13,76.12 299.18,149.7 454.47,227.4 74.45,37.25 408.77,215.51 461.92,219.94l0 -805.2 -1785.02 -889.1c-63.33,-30.78 -47.94,9.66 -47.76,139.82 0.12,85.24 4.89,144.11 10.6,213.07 10.8,130.6 0.58,310.75 0.58,446.74z"/>
   <path class="fil2" d="M3863.85 2339.99l2201.56 0c-9.2,-25.46 -2.34,-8.86 -18.3,-26.42l-599.14 -597.05c-32.22,-32.24 -188.67,-204.09 -220.72,-204.09l-1363.4 0 0 827.56z"/>
   <path class="fil2" d="M3863.85 4017.48c48.51,12.96 212.4,152.72 268.21,190.11 43.47,-29.13 80.26,-67.78 120.24,-103.33 25.5,-22.68 35.38,-24.9 61.58,-50.21l709.63 -631.87c24,-23.9 35.08,-38.08 63.18,-59.79l710.51 -630.99c26.96,-20.6 33.33,-29.56 58.58,-53.21 41.38,-38.74 163.6,-123.57 176.11,-170.45l-916.59 -0.2c-70.49,5.95 -368.26,276.82 -451.69,342.01l-755.43 619.58c-34.03,24.94 -42.31,21.45 -45.21,77.78 -7.53,146.55 0.88,320.78 0.88,470.57z"/>
   <path class="fil2" d="M935.87 5907.45c28.33,18.98 59.26,33.1 94.24,51.09 20.29,10.43 34.57,16.55 52.51,25.73l261.92 129.31c26.24,12.77 31.94,16.75 51.79,26.46l157.29 77.45c71.49,32.02 142.98,68.66 209.24,103.74l455.33 -405.46c35.33,-35.93 59.87,-47.8 95.2,-83.67 35.69,-36.22 53.27,-46.76 89.18,-78.51l278.15 -247.27c47.09,-50.95 20.88,-237.78 20.88,-325.78 0,-234.85 0,-469.7 0,-704.55 -43.58,3.63 -61.21,27.68 -114.64,75.4l-1651.09 1356.06z"/>
   <path class="fil2" d="M555.91 2518.92c229.71,199.81 790.92,578.08 1047.13,786.19l1009.08 757.21c19.95,14.14 24.85,21.12 45.36,35.43 45.18,31.54 44.94,10.57 44.92,-56.74 -0.01,-47.22 2.48,-97.28 -3.85,-143.49 -22.26,-162.52 -8.13,-380.06 -8.13,-562.22 -41.36,-21.9 -66.3,-44.19 -105.36,-73.5l-748.75 -559.16c-74.14,-55.61 -138.28,-102.17 -210.44,-158.47 -74.72,-58.29 -175.44,-36.39 -332.38,-36.43 -131.82,-0.04 -223.35,11.19 -357.62,11.18 -126.65,0 -253.31,0 -379.96,0z"/>
   <path class="fil2" d="M5495.47 1512.43c22.14,41.87 6.82,16.62 34.08,44.17l84.25 83.44c100.71,94.77 537.39,544.55 585.72,576.93 0,-123.01 0.07,-246.03 0,-369.05 -0.08,-129.88 11.17,-223.08 11.17,-357.86 -51.33,24.65 -597.19,22.37 -715.22,22.37z"/>
   <path class="fil2" d="M365.93 2194.61c55.71,-14.89 524.57,-508.25 600.68,-584.33 30.86,-30.84 69.02,-52.9 81.02,-97.85l-715.23 0c2.01,1.75 5.68,1.18 6.5,4.67 0.82,3.47 5.15,3.76 6.22,4.96l10.73 11.63c23.69,38.66 10.08,608.67 10.08,660.92z"/>
  </g>
 </g>
</svg>
